<?xml version="1.0" standalone="no"?>
<!DOCTYPE svg PUBLIC "-//W3C//DTD SVG 20010904//EN"
 "http://www.w3.org/TR/2001/REC-SVG-20010904/DTD/svg10.dtd">
<svg version="1.0" xmlns="http://www.w3.org/2000/svg"
 width="1051.000000pt" height="1078.000000pt" viewBox="0 0 1051.000000 1078.000000"
 preserveAspectRatio="xMidYMid meet">

<g transform="translate(0.000000,1078.000000) scale(0.100000,-0.100000)"
fill="#000000" stroke="none">
<path d="M0 10765 c0 -13 591 -15 5255 -15 4664 0 5255 2 5255 15 0 13 -591
15 -5255 15 -4664 0 -5255 -2 -5255 -15z"/>
<path d="M4944 10536 c-45 -46 -87 -94 -95 -107 -9 -18 -14 -128 -18 -441 -6
-415 -9 -453 -40 -434 -6 4 -23 31 -37 59 -14 29 -40 77 -58 107 -89 148 -176
303 -176 311 0 5 -3 9 -8 9 -4 0 -13 15 -21 33 -8 17 -26 50 -39 71 -32 51
-78 132 -99 172 l-15 31 -150 7 c-163 8 -167 7 -189 -47 -34 -86 -70 -157 -79
-157 -16 0 -32 -40 -26 -65 4 -16 22 -29 60 -44 31 -13 57 -31 63 -44 27 -60
43 -128 43 -188 0 -76 -2 -74 100 -127 63 -32 76 -44 103 -91 29 -53 30 -57
23 -149 -4 -52 -9 -98 -11 -103 -3 -4 -51 16 -108 45 -607 313 -632 326 -649
326 -28 0 -134 -46 -157 -68 -8 -8 -24 -18 -37 -22 -12 -5 -35 -25 -50 -46
-37 -48 -36 -72 5 -274 11 -54 44 -84 81 -76 14 4 50 9 80 12 l55 6 70 -78
c94 -108 86 -103 170 -97 70 6 73 5 90 -21 9 -14 14 -33 11 -42 -6 -15 -20
-16 -119 -10 -61 3 -210 7 -330 8 -251 2 -239 6 -304 -109 -19 -35 -39 -65
-44 -69 -5 -3 -19 -24 -30 -47 -12 -23 -30 -52 -41 -64 l-20 -21 75 -115 c41
-63 79 -117 84 -120 5 -3 25 -2 44 3 98 27 169 40 185 34 11 -4 31 -18 46 -32
25 -23 32 -24 117 -20 86 4 93 6 124 36 18 18 43 32 56 32 12 0 52 -20 89 -44
115 -74 136 -80 165 -48 9 9 32 26 51 36 35 19 37 19 70 1 33 -18 35 -18 61 1
16 10 35 24 44 29 8 6 48 34 88 63 60 45 75 51 92 43 11 -6 22 -21 26 -33 28
-107 44 -138 71 -138 7 0 25 16 40 35 35 46 56 44 90 -7 46 -71 136 -135 267
-192 21 -9 47 -16 59 -16 11 0 38 -5 59 -12 78 -23 278 42 369 120 37 31 45
33 88 29 26 -3 59 -8 74 -12 28 -7 35 -4 90 48 16 15 33 27 38 27 4 0 13 7 20
15 17 20 130 20 199 -1 63 -18 85 -14 130 26 36 32 67 37 119 19 25 -9 41 -6
94 15 36 14 71 26 79 26 15 0 110 -56 119 -71 12 -17 66 -29 144 -31 82 -2 83
-1 161 45 82 50 114 57 136 31 19 -23 65 -44 97 -44 34 0 58 24 97 98 16 28
32 52 37 52 4 0 8 17 8 38 0 26 -11 54 -34 91 -19 29 -44 77 -56 106 -12 30
-29 57 -38 60 -10 4 -186 9 -392 11 -206 3 -385 7 -397 10 -13 2 -23 11 -23
18 0 17 -3 14 155 152 24 21 36 25 65 19 19 -3 69 -8 111 -11 75 -6 77 -6 96
23 11 15 28 47 38 70 16 36 28 46 91 77 53 25 75 42 79 58 12 51 22 244 13
260 -8 17 -81 58 -102 58 -6 0 -33 11 -61 24 -111 52 -123 53 -198 14 -10 -5
-50 -25 -90 -44 -40 -20 -103 -51 -142 -71 -133 -67 -330 -164 -350 -173 -11
-4 -53 -24 -93 -45 -40 -20 -79 -34 -86 -32 -16 6 -29 67 -20 91 4 11 18 16
44 16 21 0 46 3 55 6 26 10 45 59 45 117 0 55 12 77 40 77 29 0 79 30 100 60
11 15 20 31 20 34 0 3 14 28 31 56 31 50 31 51 14 85 -18 39 -13 55 14 55 26
0 39 19 82 118 l37 87 -50 97 c-28 54 -57 103 -64 109 -14 11 -34 10 -119 -10
-54 -13 -164 -40 -197 -49 -18 -5 -35 -22 -51 -52 -14 -25 -41 -76 -62 -115
-20 -38 -40 -72 -43 -75 -4 -3 -14 -18 -22 -35 -8 -16 -19 -37 -26 -45 -10
-14 -81 -141 -111 -201 -7 -15 -20 -32 -28 -39 -8 -7 -24 -32 -36 -56 -28 -55
-44 -61 -64 -22 -23 47 -19 68 29 146 59 94 61 103 36 152 -18 35 -20 52 -15
131 5 100 -1 120 -46 157 -35 29 -36 42 -4 136 14 41 25 83 25 93 0 36 -158
164 -201 162 -16 0 -51 -27 -105 -83z m159 -38 c62 -43 63 -45 42 -97 -9 -25
-20 -58 -22 -73 -7 -38 -31 -35 -41 4 -12 46 -36 58 -64 30 -22 -22 -23 -27
-29 -390 -4 -202 -10 -418 -14 -479 -6 -96 -5 -116 9 -138 21 -32 54 -33 65
-2 11 30 18 179 27 599 4 180 11 325 16 322 4 -3 8 -14 8 -25 0 -10 4 -19 10
-19 5 0 25 -20 44 -45 33 -44 34 -47 35 -147 1 -57 6 -107 11 -112 18 -18 10
-47 -35 -122 -25 -40 -45 -81 -45 -91 0 -9 12 -55 26 -101 24 -80 25 -86 10
-123 -26 -65 -21 -87 29 -132 25 -22 45 -46 45 -53 0 -8 -11 -33 -25 -58 -35
-62 -32 -79 18 -115 23 -17 53 -39 66 -48 40 -30 97 -115 120 -181 18 -51 23
-83 22 -163 -1 -55 -5 -107 -10 -117 -5 -9 -18 -37 -29 -62 -62 -138 -240
-250 -397 -250 -171 0 -332 106 -407 267 -25 56 -32 84 -36 158 -6 127 24 214
107 308 35 39 125 107 142 107 8 0 26 11 41 25 24 22 26 28 17 55 -6 16 -14
30 -18 30 -11 0 -43 59 -36 70 3 5 24 19 46 32 22 12 42 31 44 43 6 29 14 249
24 645 5 190 10 346 10 348 4 15 117 122 128 122 8 0 29 -10 46 -22z m-896
-227 c78 -9 93 -19 130 -90 10 -19 35 -64 56 -99 22 -36 48 -80 59 -100 10
-19 63 -112 117 -206 54 -94 113 -198 130 -231 18 -33 41 -74 52 -92 l20 -31
-43 -29 c-24 -16 -44 -36 -46 -46 -2 -9 10 -36 27 -61 17 -25 31 -49 31 -55 0
-5 -19 -23 -42 -39 -24 -16 -52 -39 -62 -51 -28 -31 -51 -26 -75 15 -20 33
-20 40 -9 96 12 58 12 60 -12 79 -14 10 -37 19 -52 19 -15 0 -29 4 -32 9 -3 4
-24 11 -46 15 l-41 6 2 84 c2 72 -1 92 -23 138 -14 29 -30 64 -36 78 -7 18
-33 38 -86 64 l-76 38 0 52 c0 28 -7 74 -16 101 -39 118 -52 142 -85 156 -35
14 -36 25 -7 92 44 105 39 102 165 88z m1748 -63 c40 -60 43 -92 15 -148 -20
-40 -21 -40 -79 -40 -38 0 -61 -4 -64 -12 -2 -7 -7 -10 -11 -7 -3 3 14 39 38
80 55 91 61 112 41 132 -20 20 -19 34 3 40 9 3 18 5 19 6 1 0 18 -23 38 -51z
m-135 5 c0 -5 -11 -26 -25 -48 -13 -22 -31 -53 -41 -70 -9 -16 -23 -37 -31
-46 -8 -9 -22 -32 -32 -50 -16 -32 -144 -242 -307 -506 -38 -62 -75 -112 -81
-113 -7 0 -22 9 -34 21 -20 20 -20 20 0 52 10 18 29 52 42 77 13 25 30 56 40
70 18 27 139 232 172 290 10 19 45 78 77 130 32 52 65 110 74 128 9 18 31 42
49 52 31 19 97 28 97 13z m-10 -238 c0 -8 14 -37 30 -65 36 -61 37 -77 6 -132
-19 -34 -34 -46 -77 -62 -92 -35 -92 -36 -97 -110 -5 -75 -7 -77 -91 -95 -30
-6 -61 -16 -68 -23 -44 -36 6 52 248 437 11 17 22 38 25 48 8 21 24 23 24 2z
m741 -376 c127 -49 122 -45 115 -92 -17 -131 -12 -121 -81 -157 -35 -18 -68
-42 -73 -54 -5 -11 -18 -38 -27 -60 -17 -38 -17 -38 -64 -32 -25 4 -74 9 -108
13 l-61 6 -96 -93 -95 -92 -50 13 c-60 15 -93 4 -113 -38 -10 -20 -23 -29 -50
-34 -45 -7 -62 -20 -78 -59 -11 -27 -17 -30 -59 -30 -25 0 -62 -8 -81 -18 -32
-16 -35 -21 -36 -65 -1 -59 -12 -72 -47 -56 -25 11 -27 17 -27 67 0 50 -8 87
-31 148 -5 16 -2 28 13 44 18 19 19 26 9 65 -16 63 -14 95 7 101 39 13 157 68
237 111 22 12 87 44 145 71 240 113 330 156 430 207 58 29 119 54 136 54 17 1
56 -8 85 -20z m-2836 -76 c257 -130 345 -173 354 -173 5 0 11 -4 13 -9 2 -4
78 -46 170 -92 92 -46 179 -90 193 -97 14 -8 30 -24 35 -36 4 -12 15 -28 23
-35 25 -20 31 -68 13 -96 -9 -14 -23 -48 -31 -77 -7 -29 -19 -70 -25 -91 -16
-55 -39 -45 -56 23 -16 61 -32 78 -132 141 -58 36 -68 39 -135 39 -40 0 -89
-4 -110 -9 -35 -9 -87 4 -87 20 0 4 -11 20 -24 35 -13 16 -36 43 -49 59 -25
29 -28 30 -102 27 l-77 -3 -57 62 c-31 34 -65 75 -76 91 -19 27 -24 28 -70 24
-128 -13 -119 -15 -127 29 -3 22 -10 63 -15 92 -11 59 5 103 36 103 10 0 24 7
31 15 7 8 18 15 25 15 7 0 26 7 41 15 16 8 38 15 49 15 11 0 97 -39 190 -87z
m1794 -90 c6 -21 11 -46 11 -56 0 -9 5 -26 12 -36 16 -27 5 -46 -39 -65 -91
-40 -88 -37 -87 -99 2 -70 -8 -72 -72 -14 l-46 43 32 62 c22 43 38 62 51 62
18 0 56 45 91 109 22 41 35 39 47 -6z m-1066 -160 c-7 -2 -19 -2 -25 0 -7 3
-2 5 12 5 14 0 19 -2 13 -5z m-618 -363 c204 -5 384 -12 401 -15 69 -15 112
-84 114 -182 0 -28 -4 -33 -24 -33 -13 0 -34 -8 -47 -18 -65 -50 -160 -112
-172 -112 -7 0 -22 7 -33 15 -30 23 -46 18 -110 -30 -32 -24 -63 -45 -68 -45
-5 0 -25 12 -45 28 -38 29 -57 41 -108 67 -18 10 -33 21 -33 26 0 23 -51 5
-97 -34 -42 -36 -61 -45 -104 -50 -50 -6 -57 -4 -93 25 -46 37 -92 41 -174 14
-29 -10 -63 -15 -75 -12 -13 3 -37 31 -60 70 l-38 64 28 48 c16 27 37 66 48
87 11 21 35 54 53 74 l32 36 118 -7 c64 -4 284 -11 487 -16z m2748 -69 c319
-10 298 -4 348 -110 l31 -66 -23 -42 c-13 -24 -28 -43 -34 -43 -5 1 -26 14
-45 30 -52 45 -62 43 -222 -51 -40 -24 -60 -29 -113 -29 -60 0 -69 3 -151 55
-49 30 -93 55 -99 55 -5 0 -35 -10 -65 -22 -46 -19 -71 -22 -147 -20 -79 2
-93 0 -105 -16 -7 -10 -25 -26 -39 -36 -22 -14 -31 -15 -55 -5 -16 6 -79 12
-140 12 -107 1 -112 0 -140 -25 -73 -68 -86 -78 -98 -78 -25 0 -25 27 0 76 13
26 24 57 24 68 0 12 7 29 15 39 12 17 22 18 88 12 89 -9 92 -6 92 85 l0 65 45
6 c50 6 110 34 110 51 0 11 13 11 723 -11z m-2105 -200 c17 -54 15 -71 -7 -71
-14 0 -22 12 -30 46 -6 25 -9 49 -6 55 13 20 32 7 43 -30z"/>
<path d="M4919 9065 c-137 -37 -222 -136 -245 -282 -13 -82 32 -198 103 -265
52 -50 129 -78 215 -78 42 0 90 5 105 11 78 32 96 43 128 76 79 81 114 207 84
302 -46 146 -121 215 -258 241 -66 12 -73 12 -132 -5z m186 -106 c42 -25 69
-56 99 -113 30 -56 32 -87 11 -160 -16 -54 -74 -126 -102 -126 -13 0 -13 3 -3
15 18 21 16 85 -4 123 -23 44 -68 65 -126 60 -86 -8 -129 -66 -115 -156 6 -44
6 -45 -12 -31 -60 47 -83 98 -83 186 0 73 15 116 56 156 74 74 199 95 279 46z
m-87 -291 c17 -17 15 -55 -4 -66 -40 -22 -76 17 -54 58 12 22 40 26 58 8z"/>
<path d="M4162 10168 c-19 -19 -15 -43 19 -105 18 -32 47 -85 64 -118 18 -33
62 -111 99 -174 36 -62 66 -115 66 -117 0 -1 17 -31 39 -66 21 -35 55 -93 74
-129 20 -37 42 -69 49 -72 26 -9 58 12 58 38 0 23 -16 63 -31 75 -3 3 -23 39
-45 80 -21 41 -42 77 -46 78 -5 2 -8 8 -8 13 0 4 -20 43 -45 85 -25 41 -45 77
-45 79 0 2 -14 27 -30 56 -17 28 -49 85 -71 127 -78 147 -113 184 -147 150z"/>
<path d="M6500 9513 c-8 -3 -46 -20 -85 -38 -77 -36 -114 -53 -190 -85 -28
-12 -68 -30 -90 -40 -22 -10 -58 -26 -80 -35 -22 -9 -57 -26 -78 -36 -21 -10
-42 -19 -47 -19 -5 0 -34 -11 -65 -25 -137 -62 -162 -73 -197 -84 -42 -14 -51
-31 -38 -66 13 -33 52 -33 118 0 28 14 54 25 58 25 5 0 41 16 79 35 39 19 73
35 77 35 7 0 250 101 313 130 74 34 173 77 235 102 55 22 75 37 78 58 7 41
-37 62 -88 43z"/>
<path d="M3492 9498 c-7 -7 -12 -24 -12 -40 0 -29 -10 -23 175 -108 39 -18
111 -51 160 -75 100 -48 185 -87 290 -135 39 -17 102 -47 141 -67 86 -42 118
-41 122 3 3 30 0 33 -70 67 -40 19 -104 50 -143 67 -38 18 -110 51 -160 75
-277 132 -325 155 -329 155 -2 0 -32 16 -66 35 -66 37 -89 42 -108 23z"/>
<path d="M3192 8848 c-20 -20 -14 -58 11 -67 23 -9 669 -31 892 -31 89 0 135
4 143 12 18 18 15 56 -6 67 -9 5 -92 10 -182 11 -91 0 -286 5 -435 10 -361 13
-409 12 -423 -2z m1048 -58 c0 -5 -7 -10 -15 -10 -8 0 -15 5 -15 10 0 6 7 10
15 10 8 0 15 -4 15 -10z"/>
<path d="M5808 8784 c-21 -6 -35 -51 -21 -65 19 -19 132 -27 433 -33 168 -3
374 -9 457 -12 139 -7 155 -5 173 11 25 23 25 37 -1 61 -19 17 -47 19 -312 25
-161 4 -386 10 -502 13 -115 2 -218 3 -227 0z"/>
<path d="M8013 8247 c-26 -28 -45 -59 -52 -88 -31 -120 -46 -154 -71 -157 -26
-2 -198 113 -271 183 -21 19 -42 35 -47 35 -12 0 -22 -72 -28 -210 -6 -140 -8
-150 -40 -150 -14 0 -42 7 -62 16 -21 9 -48 21 -62 26 -14 6 -33 15 -44 20
-13 7 -21 6 -27 -4 -11 -16 -10 -231 1 -273 59 -218 119 -309 264 -393 109
-63 161 -82 286 -100 168 -24 192 -53 193 -241 1 -119 -22 -235 -48 -245 -7
-2 -24 3 -37 12 -14 9 -51 34 -82 54 -31 21 -72 54 -90 73 -19 19 -40 35 -46
35 -14 0 -8 -288 8 -365 18 -90 54 -179 98 -245 48 -72 133 -164 179 -196 46
-32 122 -54 187 -54 73 0 90 -15 117 -108 25 -81 26 -155 7 -272 -28 -167 -78
-223 -166 -186 -39 16 -90 59 -90 76 0 19 -50 90 -63 90 -18 0 -63 -101 -76
-170 -26 -141 -31 -179 -31 -261 0 -96 20 -192 48 -226 83 -103 142 -169 207
-233 111 -109 142 -160 155 -253 15 -105 -11 -362 -42 -424 -8 -15 -26 -50
-39 -78 -27 -55 -69 -84 -133 -88 -41 -2 -40 -3 -99 117 -48 101 -53 100 -86
-24 -10 -36 -37 -94 -60 -130 -38 -61 -85 -149 -101 -195 -32 -87 -54 -230
-46 -306 3 -35 9 -89 12 -119 5 -53 12 -77 40 -131 7 -14 23 -52 35 -85 12
-32 25 -63 29 -69 5 -5 11 -36 15 -68 6 -50 4 -64 -20 -112 -32 -67 -129 -187
-176 -219 -38 -26 -153 -70 -212 -80 -33 -6 -38 -4 -45 16 -4 13 -7 80 -6 151
1 70 -2 129 -6 132 -4 3 -31 -18 -60 -45 -29 -27 -81 -64 -117 -82 -117 -59
-259 -220 -346 -394 -43 -86 -53 -131 -67 -314 -6 -80 -13 -161 -16 -180 -9
-57 -51 -116 -122 -172 -94 -74 -106 -80 -137 -68 -35 13 -170 13 -219 -1 -21
-6 -50 -8 -63 -4 -23 5 -25 10 -20 45 3 21 16 54 30 72 34 45 110 212 101 221
-3 3 -20 0 -37 -6 -32 -10 -40 -13 -106 -38 -19 -7 -54 -30 -78 -51 -41 -35
-70 -51 -178 -98 -93 -41 -289 -207 -343 -290 -33 -51 -112 -230 -112 -254 0
-14 -48 -145 -62 -171 -7 -11 -18 -33 -26 -48 -24 -48 -162 -125 -308 -172
-27 -9 -58 -20 -69 -24 -79 -32 -151 -40 -209 -22 -17 5 -50 14 -73 20 -100
25 -131 35 -193 58 -115 43 -232 107 -255 138 -22 29 -79 175 -103 263 -7 23
-17 61 -24 85 -21 77 -70 158 -132 219 -61 61 -250 208 -267 208 -5 0 -31 9
-57 21 -26 12 -58 26 -72 32 -14 6 -50 30 -80 52 -68 52 -210 105 -210 79 0
-4 8 -23 18 -43 10 -20 29 -58 43 -86 13 -27 36 -70 51 -94 27 -44 36 -85 20
-95 -4 -2 -91 -6 -193 -7 -210 -4 -199 -7 -306 94 -77 73 -85 100 -94 317 -4
102 -11 203 -16 226 -11 46 -76 169 -136 259 -65 95 -156 180 -230 215 -36 17
-90 53 -120 80 -30 28 -57 50 -59 50 -3 0 -7 -60 -10 -133 -6 -140 -17 -183
-46 -172 -9 3 -38 10 -64 15 -26 5 -67 19 -90 30 -23 11 -46 20 -51 20 -33 0
-173 157 -205 230 -8 19 -19 45 -25 57 -11 25 3 90 34 160 10 24 19 45 19 49
0 3 15 31 33 62 50 87 58 124 64 294 5 130 3 170 -12 230 -21 87 -47 147 -87
206 -34 49 -72 150 -82 216 -12 76 -18 71 -111 -101 -25 -47 -32 -53 -60 -53
-34 0 -88 20 -116 42 -63 52 -105 242 -103 473 0 112 3 125 28 172 15 27 64
85 109 128 213 201 285 285 307 358 16 53 16 313 1 392 -17 87 -43 164 -58
169 -12 5 -63 -58 -63 -79 -1 -33 -121 -119 -153 -109 -47 14 -85 53 -103 106
-27 81 -25 312 3 391 11 33 27 65 34 73 16 15 101 34 158 34 20 1 59 13 87 28
60 31 220 175 230 205 3 11 21 44 39 72 19 28 41 76 50 106 9 30 21 63 25 74
19 44 39 355 24 355 -5 0 -31 -18 -59 -39 -174 -138 -210 -154 -220 -103 -4
15 -10 35 -16 44 -5 10 -9 74 -9 142 0 113 3 131 27 188 15 35 28 65 30 67 5
6 134 30 198 37 63 7 158 40 209 72 22 13 53 30 70 38 17 7 57 36 89 64 85 77
162 242 177 385 5 39 11 98 15 133 7 58 6 62 -12 62 -24 0 -73 -15 -130 -41
-59 -26 -91 -25 -97 4 -3 12 -7 89 -10 171 -5 147 -16 191 -37 154 -12 -22
-204 -161 -265 -192 -42 -22 -51 -23 -63 -11 -19 18 -51 103 -51 133 0 26 -24
77 -49 106 -25 28 -72 49 -83 38 -6 -6 -13 -59 -15 -117 -6 -133 -21 -177 -83
-240 -105 -109 -156 -260 -130 -389 12 -55 70 -205 90 -231 38 -49 50 -89 50
-165 0 -118 -26 -180 -99 -233 -31 -23 -84 -71 -119 -107 l-64 -64 -19 24
c-26 34 -62 110 -94 198 -15 39 -30 72 -34 72 -4 0 -13 -28 -21 -62 -21 -95
-47 -163 -95 -247 -41 -72 -56 -106 -84 -193 -19 -57 -16 -208 5 -270 16 -50
42 -102 69 -141 21 -30 98 -84 138 -97 51 -16 61 -38 53 -124 -7 -77 -32 -196
-48 -236 -6 -14 -14 -34 -18 -45 -14 -35 -37 -88 -66 -150 -15 -33 -30 -75
-33 -94 -8 -45 -37 -64 -57 -37 -8 11 -14 29 -14 40 0 25 -93 218 -113 234
-13 11 -17 10 -26 -7 -6 -11 -11 -29 -11 -40 0 -11 -4 -30 -9 -43 -5 -13 -17
-59 -26 -103 -10 -44 -25 -102 -35 -130 -23 -65 -35 -289 -20 -365 6 -30 14
-73 19 -95 9 -47 42 -124 71 -165 11 -15 79 -67 151 -115 72 -48 136 -97 144
-109 7 -11 18 -43 23 -71 15 -68 35 -442 30 -540 -6 -103 -26 -201 -45 -216
-19 -17 -59 -2 -167 62 -46 27 -87 49 -90 49 -12 0 -6 -131 10 -222 30 -180
80 -303 186 -461 41 -60 64 -84 98 -102 71 -35 89 -43 180 -70 47 -15 94 -30
105 -35 11 -5 42 -11 69 -14 55 -7 60 -12 108 -105 18 -35 55 -92 82 -125 63
-79 116 -188 116 -240 0 -22 4 -53 9 -70 5 -17 15 -56 21 -86 7 -30 17 -70 23
-87 6 -18 8 -35 5 -38 -3 -3 -52 1 -108 10 -107 15 -207 18 -249 6 l-25 -7 33
-24 c18 -14 54 -45 79 -69 26 -24 62 -55 79 -68 18 -14 56 -57 85 -97 28 -39
70 -96 92 -126 55 -76 112 -128 171 -155 74 -34 99 -38 230 -39 104 0 137 4
244 32 158 42 202 34 300 -57 24 -23 47 -41 51 -41 11 0 44 -40 46 -56 6 -41
62 -128 121 -187 36 -37 63 -72 61 -79 -3 -7 -20 -16 -39 -19 -19 -3 -56 -18
-84 -31 -27 -14 -77 -34 -110 -44 -62 -18 -105 -47 -105 -71 0 -21 20 -25 134
-26 l105 -2 58 -61 c152 -161 269 -222 431 -226 93 -2 227 16 247 34 5 4 19 8
32 8 13 0 31 4 41 9 9 5 55 21 102 36 71 23 97 27 155 22 70 -5 166 -32 240
-67 22 -10 63 -26 90 -36 28 -9 56 -23 64 -30 21 -19 6 -44 -29 -44 -16 0 -49
-4 -72 -10 -45 -10 -284 -54 -378 -70 -30 -5 -71 -12 -90 -15 -19 -3 -60 -10
-90 -15 -30 -4 -100 -16 -155 -25 -143 -24 -210 -35 -290 -45 -38 -5 -92 -13
-120 -20 -27 -6 -102 -15 -165 -20 -63 -5 -151 -14 -195 -19 -44 -6 -142 -10
-218 -10 -153 -1 -160 -4 -133 -62 47 -104 93 -136 178 -125 29 4 94 11 143
16 50 6 131 15 180 21 50 6 126 13 170 17 44 4 86 11 94 16 8 5 33 10 55 11
77 4 274 34 441 67 107 21 132 27 185 43 30 9 69 19 85 21 17 3 47 9 68 14 93
24 123 33 142 40 11 5 31 11 45 13 14 3 50 14 80 25 30 11 75 25 100 31 25 7
79 24 120 37 85 27 124 30 160 9 14 -8 37 -14 53 -15 15 0 27 -4 27 -10 0 -5
10 -10 22 -10 12 0 56 -11 97 -25 117 -39 136 -45 155 -45 9 0 31 -7 47 -16
22 -11 29 -21 27 -37 -3 -20 1 -22 32 -19 92 9 199 4 255 -12 33 -9 87 -22
120 -27 33 -5 85 -14 115 -19 30 -6 89 -14 130 -19 91 -12 205 -29 234 -37 11
-3 64 -9 116 -15 52 -5 138 -14 190 -20 52 -5 133 -13 180 -18 47 -4 93 -11
103 -15 34 -16 105 14 146 61 35 39 87 131 79 138 -2 1 -118 6 -258 10 -140 4
-271 10 -290 11 -145 15 -327 38 -460 59 -58 9 -134 21 -170 26 -272 38 -306
43 -575 89 -27 5 -80 13 -116 19 -76 12 -99 20 -99 32 0 11 65 51 110 68 19 7
55 22 80 34 35 15 68 20 150 21 98 1 118 -3 195 -34 11 -5 34 -11 50 -15 17
-3 46 -10 65 -15 137 -37 193 -44 279 -33 106 14 176 44 261 115 78 64 150
135 150 148 0 16 72 30 156 30 84 0 113 13 101 44 -5 13 -61 46 -78 46 -5 0
-32 11 -61 24 -55 25 -118 46 -146 50 -9 2 -21 10 -26 19 -8 13 4 31 62 91 52
53 82 94 105 145 28 62 42 78 118 139 57 45 99 72 123 76 36 7 131 -6 171 -24
11 -4 36 -11 55 -14 19 -3 62 -11 95 -18 48 -11 77 -11 144 -1 119 17 198 58
284 146 37 39 67 75 67 81 0 6 15 28 33 48 17 20 51 62 74 92 23 31 60 67 82
81 22 13 45 33 50 44 11 20 105 91 121 91 6 0 10 5 10 11 0 11 -203 7 -332 -7
-32 -3 -58 -2 -58 2 0 12 41 137 51 156 5 10 9 42 9 72 0 29 7 70 15 90 21 50
89 160 142 228 24 31 55 80 70 108 32 61 65 90 104 90 16 0 37 4 47 9 9 5 58
21 107 37 50 15 95 30 100 34 6 3 29 12 53 20 49 15 79 43 144 132 112 155
198 384 218 578 4 41 11 85 15 98 4 12 3 22 -2 22 -5 0 -58 -29 -118 -65 -62
-37 -119 -65 -135 -65 -26 0 -28 3 -39 69 -20 125 -7 399 30 606 23 127 40
166 83 189 27 14 78 48 111 73 6 5 36 28 68 52 32 25 71 63 86 85 32 47 74
156 91 236 14 62 8 296 -8 370 -6 25 -21 109 -35 188 -21 125 -37 177 -50 161
-20 -23 -77 -116 -77 -126 0 -6 -4 -13 -8 -15 -5 -1 -20 -32 -34 -68 -40 -101
-46 -96 -118 80 -12 30 -26 64 -31 75 -32 76 -49 159 -55 269 -8 146 -2 163
59 172 89 14 206 185 227 331 17 120 -4 218 -82 383 -46 97 -51 115 -83 265
-12 57 -15 62 -26 43 -5 -10 -24 -57 -41 -105 -17 -49 -38 -99 -47 -113 -9
-14 -21 -34 -27 -45 -19 -34 -40 -29 -73 18 -18 24 -53 57 -79 73 -106 66
-132 115 -132 245 0 94 -2 88 83 240 55 98 67 143 68 258 0 93 -3 116 -25 170
-14 34 -46 88 -72 120 -67 83 -78 117 -92 291 -6 75 -9 85 -27 88 -13 1 -35
-14 -62 -41z"/>
<path d="M6507 8104 c-6 -7 -91 -38 -168 -63 -15 -5 -42 -16 -60 -24 -19 -8
-54 -20 -79 -28 -25 -7 -69 -23 -98 -36 -29 -13 -61 -23 -71 -23 -40 0 -44
-25 -13 -82 26 -46 33 -53 58 -51 16 1 38 7 49 12 11 5 52 21 90 36 39 15 77
30 85 35 34 16 80 22 80 9 0 -7 -54 -66 -120 -131 -66 -65 -120 -123 -119
-130 0 -7 8 -26 18 -43 16 -26 23 -30 57 -27 21 1 50 7 64 11 14 5 52 14 85
21 33 6 79 16 103 22 55 14 74 0 40 -31 -28 -25 -91 -72 -175 -129 -65 -44
-75 -63 -48 -98 8 -10 15 -26 15 -35 0 -9 7 -22 15 -29 16 -13 6 -20 226 145
74 55 164 122 202 148 37 27 67 52 67 57 0 19 -73 130 -86 130 -8 0 -69 -13
-137 -29 -177 -42 -207 -46 -207 -28 0 9 54 69 120 135 72 71 120 126 120 138
0 10 -13 42 -28 69 -20 37 -34 51 -52 53 -14 2 -29 0 -33 -4z"/>
<path d="M3914 7922 c-17 -12 -54 -69 -54 -84 0 -15 63 -58 85 -58 9 0 19 8
22 18 4 9 12 21 20 25 7 4 13 16 13 25 0 21 -73 83 -86 74z"/>
<path d="M4830 7913 c-30 -2 -64 -7 -75 -12 -11 -5 -36 -16 -57 -25 -20 -9
-40 -16 -45 -16 -17 0 -104 -92 -139 -147 -33 -52 -34 -56 -34 -158 0 -57 -4
-115 -10 -129 -9 -24 -14 -25 -87 -28 l-78 -3 -14 -98 c-11 -77 -12 -106 -3
-131 15 -40 15 -83 2 -91 -5 -3 -10 -26 -10 -50 0 -32 -5 -47 -17 -53 -10 -5
-66 -8 -125 -6 -77 2 -112 -1 -125 -11 -16 -12 -19 -34 -23 -182 l-5 -168 -67
0 c-37 0 -70 -3 -73 -7 -4 -3 -11 -39 -16 -80 -25 -192 -31 -240 -40 -333 -6
-55 -14 -134 -19 -175 -4 -41 -13 -121 -19 -178 -5 -56 -13 -107 -16 -112 -3
-6 -11 -58 -16 -117 -11 -120 -25 -249 -39 -363 -6 -41 -14 -113 -19 -160 -5
-47 -17 -141 -26 -210 -8 -69 -20 -165 -26 -215 -6 -49 -14 -126 -20 -170 -10
-93 -25 -222 -38 -350 -5 -49 -14 -117 -20 -150 -6 -33 -12 -76 -13 -95 -3
-37 -10 -41 -118 -70 -25 -7 -54 -16 -65 -21 -11 -5 -33 -13 -48 -19 -22 -8
-28 -16 -25 -33 4 -27 36 -33 92 -17 89 25 212 64 221 69 5 3 50 19 100 37
150 52 228 83 239 94 5 5 18 10 28 10 10 0 26 4 36 9 40 20 119 54 142 61 237
75 334 100 395 101 42 1 122 -13 163 -29 53 -21 52 -44 -3 -54 -22 -4 -60 -11
-85 -17 -25 -6 -96 -22 -158 -34 -64 -14 -121 -31 -130 -41 -9 -9 -22 -35 -29
-58 -23 -80 14 -156 109 -221 82 -57 159 -73 283 -58 55 6 118 11 141 11 22 0
44 4 50 8 5 5 63 14 129 21 136 14 155 10 283 -63 35 -20 70 -36 77 -36 7 0
15 -4 17 -8 2 -5 48 -40 103 -79 55 -39 156 -126 225 -194 69 -68 149 -146
177 -172 34 -32 53 -60 57 -81 14 -72 -19 -130 -82 -142 -27 -5 -36 -2 -61 25
-16 17 -32 31 -36 31 -13 0 -107 83 -225 198 -101 99 -119 112 -145 110 -69
-7 -50 -31 218 -281 98 -92 107 -104 107 -136 -1 -57 -47 -101 -108 -101 -37
0 -69 26 -241 191 -141 136 -173 153 -179 98 -3 -22 18 -46 129 -153 127 -123
131 -127 125 -160 -9 -47 -29 -60 -90 -60 -62 0 -94 19 -219 128 -92 81 -120
91 -125 45 -2 -21 10 -38 64 -88 37 -33 71 -61 75 -61 18 0 8 -30 -13 -41 -29
-16 -148 -4 -190 19 -23 13 -44 40 -68 85 -39 75 -64 90 -135 80 l-43 -5 -23
51 c-26 62 -57 81 -129 81 l-50 0 0 38 c0 42 -29 95 -60 112 -21 11 -80 9
-162 -5 -34 -7 -37 -5 -53 29 -13 27 -27 38 -64 51 -69 22 -128 1 -182 -67
-21 -27 -39 -54 -39 -58 0 -20 -41 -19 -101 4 -95 35 -273 60 -373 52 -189
-16 -211 -20 -214 -39 -7 -36 16 -47 100 -47 l80 0 -6 -57 c-4 -32 -11 -101
-16 -153 -5 -52 -14 -138 -20 -190 -5 -52 -13 -138 -18 -190 -4 -52 -11 -100
-15 -106 -13 -22 -26 -178 -15 -191 15 -19 45 -16 68 7 26 26 91 26 149 0 24
-11 60 -20 80 -20 31 0 40 -5 49 -25 7 -14 12 -33 12 -41 0 -11 9 -14 33 -12
30 3 32 6 40 53 7 45 25 254 28 330 1 17 8 89 16 160 7 72 16 176 18 230 8
166 10 171 50 158 27 -8 35 -23 28 -51 -11 -45 7 -108 43 -151 33 -37 40 -41
84 -41 82 0 79 46 40 -570 -19 -310 -21 -346 -12 -358 5 -7 31 -15 57 -17 27
-2 51 -8 54 -13 3 -6 29 -12 56 -16 142 -16 145 -17 151 -42 8 -30 41 -41 62
-20 19 18 30 97 31 216 1 47 5 123 11 170 5 47 10 141 11 210 3 137 16 198 45
215 10 5 31 18 47 28 27 19 41 16 67 -14 3 -3 27 -10 55 -16 60 -14 85 -3 136
57 l35 41 80 -26 c55 -19 92 -25 124 -22 25 3 51 3 58 0 9 -3 12 -40 12 -136
0 -143 18 -569 28 -682 6 -61 10 -70 28 -73 15 -2 31 9 54 37 29 37 36 41 78
41 25 0 65 7 88 16 39 15 44 15 89 -6 34 -15 51 -18 58 -11 8 8 7 122 -1 393
-7 211 -12 416 -12 456 0 71 0 72 26 72 66 0 175 79 186 135 4 22 35 32 51 16
11 -11 24 -180 32 -436 3 -93 10 -199 15 -235 5 -36 12 -86 15 -111 8 -60 25
-65 99 -28 40 20 73 29 106 29 27 0 52 5 56 11 4 8 26 9 63 5 31 -4 70 -8 86
-9 l30 -2 -2 60 c-2 63 -11 164 -38 435 -9 91 -20 215 -24 276 -4 60 -11 116
-15 123 -4 7 -5 24 -1 38 6 25 6 26 78 18 104 -10 177 -13 215 -7 29 4 32 8
32 39 0 19 -6 36 -14 39 -7 3 -130 6 -273 7 -263 2 -293 6 -293 41 0 13 -52
69 -128 138 -29 26 -52 52 -52 58 0 7 9 23 20 37 15 19 17 30 9 44 -8 16 -21
19 -72 19 -60 0 -64 2 -132 57 -105 84 -369 253 -396 253 -5 0 -27 9 -49 20
-53 27 -181 27 -331 -1 -71 -13 -159 -22 -234 -23 -119 -1 -121 -1 -181 33
-67 37 -84 65 -84 139 0 37 3 42 28 47 15 3 41 10 58 15 17 6 42 10 57 10 27
0 42 3 202 41 138 32 240 51 390 70 89 11 303 3 343 -13 45 -18 65 -25 117
-44 56 -19 145 -58 250 -109 39 -19 95 -45 125 -58 30 -13 78 -34 105 -47 104
-46 109 -47 250 -61 217 -20 264 -22 294 -9 16 6 32 18 35 26 11 29 -37 43
-185 54 -248 19 -249 19 -254 43 -2 12 -6 60 -9 107 -3 47 -10 132 -15 190
-14 142 -30 339 -41 490 -5 69 -12 150 -15 180 -22 213 -43 439 -54 595 -5 66
-14 170 -20 230 -5 61 -15 164 -20 230 -6 66 -15 161 -20 210 -5 50 -15 149
-21 220 -6 72 -13 158 -16 192 -7 84 -17 94 -95 102 l-64 6 3 95 c2 52 5 123
8 156 6 92 -6 103 -130 114 -54 6 -102 7 -107 4 -5 -3 -19 -2 -30 1 -20 7 -21
11 -15 128 4 67 9 154 12 194 5 63 3 74 -15 92 -17 17 -34 21 -80 21 -78 0
-85 9 -76 102 13 143 12 149 -29 215 -64 104 -99 137 -188 181 -72 35 -94 41
-163 44 -44 2 -105 2 -135 1z m-70 -123 c0 -5 -5 -10 -11 -10 -5 0 -7 5 -4 10
3 6 8 10 11 10 2 0 4 -4 4 -10z m210 -195 c140 -4 263 -8 273 -11 14 -5 17
-18 17 -92 0 -48 -4 -93 -9 -101 -8 -12 -37 -12 -187 -2 -99 6 -249 11 -334
11 -85 0 -160 4 -166 8 -13 8 -13 169 0 190 6 10 26 12 80 8 39 -3 186 -8 326
-11z m-210 -725 c173 -5 448 -13 610 -16 162 -4 303 -11 314 -16 17 -9 18 -19
11 -126 -4 -67 -12 -122 -18 -128 -12 -11 -256 -8 -1142 15 -203 5 -389 10
-412 10 l-43 1 0 140 0 141 183 -5 c100 -3 324 -10 497 -16z m357 -396 c-3 -3
-12 -4 -19 -1 -8 3 -5 6 6 6 11 1 17 -2 13 -5z m-854 -204 c20 0 20 -4 13
-147 -4 -82 -11 -211 -16 -288 -41 -654 -56 -909 -85 -1550 -7 -151 -14 -185
-39 -185 -8 0 -47 -14 -86 -31 -58 -24 -75 -28 -81 -17 -11 17 -12 3 11 243
11 116 25 264 31 330 5 66 17 192 25 280 27 279 32 337 43 465 23 273 48 521
56 560 2 14 10 93 16 175 6 83 16 156 22 163 7 9 22 12 40 8 16 -3 39 -6 50
-6z m1307 -45 c11 -14 21 -133 36 -440 2 -55 9 -130 14 -167 6 -37 10 -95 10
-130 0 -35 4 -119 10 -188 5 -69 17 -222 25 -340 8 -118 20 -278 25 -355 6
-77 12 -171 15 -210 3 -64 22 -305 28 -365 3 -31 -20 -37 -65 -17 -18 8 -51
22 -73 31 -22 9 -47 21 -55 25 -16 9 -17 29 -39 746 -6 198 -18 588 -27 868
-9 279 -13 518 -10 532 6 22 12 25 50 25 26 0 48 -6 56 -15z m-588 -174 c11
-10 19 -143 28 -456 8 -291 20 -590 39 -1020 6 -126 11 -281 11 -343 l0 -112
-27 -11 c-15 -5 -61 -11 -102 -12 -60 -2 -86 3 -121 19 -49 24 -83 36 -146 53
-23 6 -44 17 -46 24 -3 6 -1 44 3 82 4 39 8 108 8 155 1 47 5 132 11 190 5 58
16 213 25 345 8 132 20 299 25 370 11 150 17 239 31 455 10 163 17 246 24 268
4 10 29 12 117 6 62 -3 116 -9 120 -13z m225 -1897 c-3 -3 -12 -4 -19 -1 -8 3
-5 6 6 6 11 1 17 -2 13 -5z m186 -21 c-7 -2 -19 -2 -25 0 -7 3 -2 5 12 5 14 0
19 -2 13 -5z m-1253 -1138 c0 -111 -56 -225 -110 -225 -86 0 -84 173 3 271 30
33 45 38 80 26 26 -8 27 -12 27 -72z m231 5 c49 -27 0 -255 -72 -331 -29 -31
-44 -39 -73 -39 l-36 0 0 82 c0 117 35 213 98 269 35 31 52 35 83 19z m198
-169 c20 -13 28 -134 11 -169 -49 -105 -68 -126 -108 -117 -41 9 -57 49 -48
122 4 31 10 61 15 67 5 6 12 22 16 36 16 53 76 85 114 61z m219 -165 c4 -58
-9 -86 -46 -108 -43 -26 -69 1 -64 67 3 33 61 97 86 93 18 -3 21 -11 24 -52z
m1272 -620 c0 -2 -7 -9 -15 -16 -13 -11 -14 -10 -9 4 5 14 24 23 24 12z"/>
<path d="M3280 7874 c-25 -43 -21 -61 17 -75 59 -21 153 -74 153 -85 0 -6 -13
-38 -30 -70 -16 -32 -30 -64 -30 -71 0 -20 -41 -83 -53 -83 -7 0 -23 9 -37 20
-14 11 -31 20 -38 20 -8 0 -26 6 -40 14 -91 47 -89 47 -116 -22 -16 -42 -16
-43 6 -51 24 -9 82 -35 223 -99 44 -20 97 -47 117 -59 21 -13 41 -23 46 -23 5
0 33 -13 63 -30 30 -16 61 -30 70 -30 14 0 49 62 49 88 0 6 -48 35 -107 63
-60 28 -111 56 -115 62 -8 13 -3 34 22 92 10 22 26 59 36 82 21 50 43 60 87
40 145 -68 187 -87 195 -87 6 0 19 19 31 42 l21 43 -23 17 c-12 10 -27 18 -34
18 -6 0 -28 9 -50 20 -44 22 -305 147 -375 178 -26 12 -52 22 -57 22 -5 0 -19
-16 -31 -36z"/>
<path d="M6580 7311 c-55 -11 -140 -62 -166 -101 -18 -26 -24 -48 -24 -88 0
-65 17 -99 72 -146 40 -33 42 -37 26 -50 -22 -16 -22 -34 -2 -87 19 -45 26
-46 108 -10 50 23 116 48 176 68 25 8 61 22 80 31 35 17 35 18 25 53 -13 46
-32 69 -57 69 -14 0 -18 5 -14 18 26 94 16 143 -39 198 -52 51 -98 62 -185 45z
m113 -151 c30 -24 44 -87 27 -120 -16 -30 -70 -60 -108 -60 -24 0 -42 9 -63
29 -34 34 -38 72 -12 125 16 35 27 40 104 44 15 1 38 -7 52 -18z"/>
<path d="M3165 7252 c-12 -8 -35 -58 -35 -75 0 -7 16 -21 35 -31 19 -11 48
-31 65 -45 52 -46 91 -76 122 -93 30 -16 57 -46 58 -61 0 -5 -46 -6 -102 -2
-57 3 -137 7 -178 8 l-75 2 -17 -35 c-36 -73 -47 -70 225 -68 239 2 244 1 276
-21 29 -21 32 -27 29 -68 -1 -35 3 -49 17 -59 10 -8 23 -14 27 -14 18 0 48 67
48 109 0 37 -5 49 -37 80 -84 81 -200 182 -238 206 -22 15 -49 36 -60 49 -11
12 -45 42 -75 66 -30 25 -56 48 -58 53 -5 9 -14 9 -27 -1z"/>
<path d="M8254 7203 c-11 -2 -28 -17 -38 -34 -15 -26 -16 -35 -6 -60 22 -53
102 -54 132 -2 15 28 16 37 5 60 -18 43 -32 48 -93 36z"/>
<path d="M1576 7169 c-31 -37 -32 -43 -5 -80 23 -33 61 -38 97 -13 39 27 26
95 -22 112 -43 16 -40 16 -70 -19z"/>
<path d="M7854 7042 c-20 -13 -36 -54 -30 -78 6 -21 12 -24 50 -24 36 0 45 4
54 25 16 34 15 38 -8 63 -21 22 -46 28 -66 14z"/>
<path d="M1980 7010 c-27 -50 22 -96 76 -71 31 14 34 65 5 81 -32 16 -69 12
-81 -10z"/>
<path d="M6880 6790 c-14 -5 -50 -16 -80 -24 -30 -8 -87 -24 -127 -35 -39 -12
-81 -21 -92 -21 -23 0 -25 -5 -21 -70 3 -65 18 -77 77 -61 126 33 168 38 203
26 33 -11 58 -44 74 -97 4 -14 16 -18 53 -18 76 0 80 6 50 84 -7 19 -24 34
-54 47 -47 20 -59 49 -19 49 32 0 38 10 26 46 -5 16 -12 41 -15 57 -6 29 -25
33 -75 17z"/>
<path d="M3277 6638 c-3 -18 -8 -42 -12 -53 -5 -17 0 -23 28 -33 60 -21 75
-17 87 28 13 48 9 56 -30 65 -16 4 -32 11 -35 16 -13 20 -33 7 -38 -23z"/>
<path d="M2810 6496 c-46 -15 -97 -67 -105 -108 -6 -32 -34 -161 -57 -262 -9
-44 -9 -51 8 -63 10 -7 31 -13 48 -13 16 0 43 -4 60 -10 44 -14 202 -51 261
-61 28 -4 73 -13 100 -19 84 -19 108 -18 110 5 1 11 6 32 10 47 8 31 -10 45
-83 58 -86 16 -133 27 -138 33 -6 5 2 46 29 155 7 29 17 46 31 51 12 4 68 4
125 0 58 -5 106 -7 107 -6 1 1 4 24 6 52 l3 49 -70 12 c-101 18 -170 17 -190
-2 -21 -21 -40 -12 -60 29 -28 59 -108 81 -195 53z m132 -129 c12 -18 9 -105
-6 -167 -12 -54 -13 -55 -52 -58 -49 -4 -114 22 -114 45 0 9 4 30 10 47 5 17
14 53 21 79 15 61 40 80 94 72 22 -3 43 -11 47 -18z"/>
<path d="M6880 6181 c-78 -11 -142 -50 -168 -101 -35 -68 -27 -126 25 -181 43
-45 46 -66 10 -71 -13 -2 -21 -9 -18 -18 2 -8 6 -32 9 -53 2 -21 10 -41 17
-43 7 -3 43 0 81 6 38 6 101 15 139 20 39 5 99 14 135 20 36 6 103 15 150 19
47 5 93 12 103 16 19 8 23 30 6 40 -5 4 -9 19 -8 33 5 63 4 64 -58 57 -32 -4
-87 -13 -121 -21 -85 -19 -103 -6 -62 46 46 59 6 171 -78 214 -35 18 -106 25
-162 17z m123 -173 c34 -42 32 -74 -8 -114 -19 -19 -34 -24 -78 -24 -39 0 -58
5 -69 18 -61 70 -9 166 86 160 31 -2 45 -10 69 -40z"/>
<path d="M8573 5871 c-16 -26 -17 -63 -1 -79 7 -7 29 -12 50 -12 32 0 40 4 48
26 16 41 -7 78 -50 82 -26 2 -38 -2 -47 -17z"/>
<path d="M1171 5843 c-19 -23 -20 -29 -8 -47 8 -12 26 -25 41 -30 32 -12 59 9
59 48 0 58 -56 76 -92 29z"/>
<path d="M3072 5808 c-13 -13 -17 -84 -4 -91 4 -3 28 -8 55 -12 46 -7 47 -7
47 18 0 14 5 29 10 32 6 3 10 15 10 25 0 14 -12 21 -50 29 -61 13 -54 13 -68
-1z"/>
<path d="M8124 5775 c-24 -37 -12 -72 28 -80 26 -6 35 -3 50 15 22 27 22 39 2
68 -21 30 -59 29 -80 -3z"/>
<path d="M1652 5764 c-38 -26 -23 -74 23 -74 20 0 55 28 55 43 0 8 -41 47 -50
47 -3 0 -16 -7 -28 -16z"/>
<path d="M6885 5628 c-59 -30 -75 -47 -101 -106 -30 -65 -30 -125 -3 -189 25
-60 56 -93 85 -93 17 0 24 8 32 40 8 34 7 43 -14 71 -12 17 -26 44 -29 59 -9
41 18 98 49 106 45 11 56 0 58 -58 0 -29 3 -64 4 -78 2 -14 6 -45 9 -70 12
-93 12 -93 54 -86 53 8 95 31 131 72 42 48 51 75 46 137 -6 91 -60 180 -116
192 -16 4 -32 11 -35 16 -12 18 -128 9 -170 -13z m217 -150 c17 -33 18 -41 6
-65 -8 -17 -21 -28 -33 -28 -17 0 -21 9 -26 51 -4 29 -9 57 -13 62 -7 11 11
22 33 19 8 -1 23 -19 33 -39z"/>
<path d="M2536 5628 c-6 -23 -29 -142 -37 -193 -4 -27 -12 -79 -18 -115 -17
-101 -15 -110 16 -110 23 0 61 -6 264 -40 30 -6 73 -10 95 -10 21 0 53 -4 70
-9 17 -5 58 -12 91 -16 l60 -7 7 64 c3 35 10 88 15 118 40 257 40 270 -14 270
-28 0 -35 -4 -39 -22 -2 -13 -12 -66 -21 -118 -33 -186 -34 -190 -63 -190 -15
1 -49 7 -77 14 -62 16 -62 20 -40 175 16 110 16 116 -1 128 -10 7 -30 13 -44
13 -34 0 -50 -33 -50 -103 0 -29 -4 -68 -9 -87 -5 -19 -12 -48 -16 -64 -6 -28
-7 -29 -60 -23 -72 7 -78 12 -72 56 10 65 36 206 42 226 8 29 -5 42 -52 50
-32 5 -44 3 -47 -7z"/>
<path d="M7280 5129 c-36 -5 -157 -14 -270 -21 l-205 -13 0 -65 0 -65 95 1
c177 3 528 21 539 28 14 9 14 86 1 120 -11 29 -32 31 -160 15z"/>
<path d="M2972 4999 c-20 -8 -23 -14 -20 -56 l3 -48 49 -9 c43 -8 51 -6 63 10
16 23 17 65 1 86 -16 20 -66 29 -96 17z"/>
<path d="M2430 4901 c-6 -12 -10 -109 -10 -246 l0 -226 48 3 47 3 5 85 c3 47
8 90 12 96 5 7 23 8 55 3 26 -4 139 -8 251 -8 l202 -1 0 36 c0 73 8 71 -265
79 l-245 7 0 82 c0 50 -5 87 -12 94 -20 20 -76 15 -88 -7z"/>
<path d="M6814 4635 c-3 -7 -4 -41 -2 -76 l3 -64 95 -3 c52 -2 96 -5 97 -6 1
-1 3 -35 4 -76 3 -115 45 -180 134 -207 105 -33 218 12 248 99 34 97 46 293
19 320 -4 4 -99 9 -212 12 -113 3 -245 7 -293 9 -64 3 -90 1 -93 -8z m456
-160 c17 -21 6 -96 -16 -112 -24 -18 -69 -16 -85 3 -7 9 -13 37 -13 62 l-1 47
40 6 c22 3 45 7 51 8 6 0 17 -6 24 -14z"/>
<path d="M2907 4354 c-4 -4 -7 -27 -7 -51 0 -38 3 -45 27 -54 15 -5 41 -9 57
-7 30 3 31 4 31 58 l0 55 -50 3 c-28 2 -54 0 -58 -4z"/>
<path d="M8131 4224 c-22 -28 -25 -44 -15 -81 5 -18 14 -23 39 -23 36 0 45 12
45 64 0 29 -24 66 -43 66 -3 0 -15 -12 -26 -26z"/>
<path d="M1580 4211 c-23 -44 2 -110 37 -97 8 3 17 6 19 6 2 0 4 22 4 49 0 35
-4 51 -16 55 -25 10 -33 7 -44 -13z"/>
<path d="M8513 4213 c-28 -19 -30 -54 -5 -76 22 -20 63 -22 80 -5 18 18 14 63
-6 81 -23 21 -40 21 -69 0z"/>
<path d="M1176 4194 c-33 -32 -13 -74 36 -74 40 0 59 41 33 70 -22 24 -48 26
-69 4z"/>
<path d="M6808 4114 c-3 -5 -9 -35 -12 -66 -9 -68 -16 -64 144 -72 166 -8 383
-24 433 -31 52 -8 60 0 71 70 11 69 10 69 -221 82 -114 6 -253 15 -309 19 -57
4 -103 3 -106 -2z"/>
<path d="M2550 4088 c-76 -6 -128 -14 -132 -21 -8 -13 -9 -70 -1 -100 3 -13
12 -16 41 -12 20 2 124 7 230 10 l194 5 34 -34 c31 -31 34 -39 34 -93 0 -35
-6 -67 -14 -79 -22 -30 -98 -43 -300 -48 -129 -4 -183 -9 -191 -18 -7 -8 -10
-32 -7 -62 l4 -49 112 7 c61 3 161 9 221 12 105 5 129 10 185 39 54 28 109
142 97 202 -30 149 -54 191 -133 228 -46 22 -65 25 -151 24 -54 -1 -154 -6
-223 -11z"/>
<path d="M6865 3865 c-22 -8 -54 -31 -72 -52 -29 -34 -33 -45 -33 -99 0 -38 5
-67 15 -80 22 -29 18 -53 -10 -66 -24 -11 -26 -16 -23 -62 l3 -51 45 -8 c51
-9 240 -27 315 -30 l50 -2 3 49 c2 27 -2 54 -7 59 -13 13 -14 47 -2 47 16 0
51 85 51 122 0 47 -22 97 -57 129 -58 54 -191 75 -278 44z m179 -150 c21 -20
26 -33 26 -74 0 -46 -3 -52 -30 -66 -33 -17 -102 -20 -130 -5 -30 16 -46 81
-29 118 16 37 41 50 95 51 30 1 48 -5 68 -24z"/>
<path d="M2948 3489 c-2 -6 -1 -34 2 -62 l5 -52 50 0 50 0 3 39 c2 22 1 50 -2
63 -6 20 -12 23 -55 23 -27 0 -51 -5 -53 -11z"/>
<path d="M5222 3348 c-20 -20 -14 -46 17 -67 35 -25 54 -26 71 -6 17 20 -2 58
-37 74 -30 14 -36 14 -51 -1z"/>
<path d="M7030 3295 c-9 -24 -12 -25 -72 -20 -35 3 -85 10 -113 15 -138 26
-141 24 -151 -63 l-7 -57 39 0 c22 0 57 -5 79 -11 22 -5 66 -14 98 -19 67 -10
87 -23 87 -55 0 -18 7 -24 34 -29 41 -8 63 0 69 25 4 16 14 19 66 19 69 0 69
0 73 75 l3 50 -48 6 c-48 5 -67 19 -67 51 0 41 -75 51 -90 13z"/>
<path d="M2885 3238 c-107 -27 -111 -36 -134 -276 -10 -109 -29 -135 -91 -130
-29 2 -38 9 -52 38 -10 20 -17 60 -18 95 0 55 3 62 37 97 l37 38 -17 35 c-21
43 -41 44 -89 4 -44 -36 -78 -106 -78 -161 0 -56 37 -163 69 -196 38 -42 128
-67 181 -51 66 20 100 56 116 124 7 33 14 88 14 123 0 34 6 80 12 102 33 103
135 61 155 -65 9 -58 -6 -106 -44 -142 -37 -36 -39 -57 -9 -98 15 -20 15 -20
53 1 21 12 52 39 68 59 29 36 30 40 29 138 -1 96 -3 106 -36 167 -51 97 -104
122 -203 98z"/>
<path d="M5035 3134 c-18 -18 -18 -17 -4 -48 6 -13 26 -32 44 -42 28 -15 36
-16 49 -5 24 20 19 45 -12 72 -38 35 -59 41 -77 23z"/>
<path d="M6720 3032 c-19 -9 -47 -36 -63 -60 -24 -36 -29 -53 -29 -104 0 -33
5 -65 11 -71 17 -17 13 -34 -9 -40 -20 -5 -32 -28 -45 -84 -6 -30 -4 -34 22
-44 15 -7 51 -16 78 -20 65 -12 145 -25 224 -39 35 -7 67 -8 70 -3 4 4 13 28
20 51 11 38 10 46 -4 62 -15 16 -13 20 19 59 86 102 40 242 -95 291 -66 24
-152 25 -199 2z m180 -152 c46 -33 45 -122 -2 -151 -26 -17 -104 -10 -131 11
-46 36 -45 111 2 147 25 20 99 16 131 -7z"/>
<path d="M7558 2706 c-22 -16 -24 -69 -4 -85 8 -7 32 -11 53 -9 31 2 39 8 47
30 14 41 -9 78 -48 78 -17 0 -39 -7 -48 -14z"/>
<path d="M2070 2690 c-24 -24 -24 -29 -4 -58 19 -27 64 -29 87 -4 22 24 21 45
-1 65 -25 23 -58 21 -82 -3z"/>
<path d="M7928 2539 c-48 -18 -48 -64 -1 -86 45 -22 63 -14 77 34 5 15 1 28
-13 42 -23 23 -25 24 -63 10z"/>
<path d="M1702 2528 c-7 -7 -12 -24 -12 -38 0 -31 17 -50 45 -50 30 1 55 24
55 52 0 31 -17 48 -50 48 -14 0 -31 -5 -38 -12z"/>
<path d="M3152 1688 c-28 -28 -7 -78 33 -78 43 0 61 50 28 76 -22 17 -45 18
-61 2z"/>
<path d="M6486 1674 c-23 -23 -20 -51 9 -70 23 -15 27 -15 50 0 30 20 33 61 6
76 -27 14 -47 13 -65 -6z"/>
<path d="M2899 1358 c-37 -31 -40 -44 -18 -72 36 -45 109 -25 109 31 0 42 -58
68 -91 41z"/>
<path d="M6716 1349 c-45 -36 -32 -86 26 -95 61 -10 92 52 48 96 -25 25 -41
25 -74 -1z"/>
</g>
</svg>
