<?xml version="1.0" encoding="UTF-8"?><svg id="Capa_2" xmlns="http://www.w3.org/2000/svg" viewBox="0 0 103.83 77.54"><defs><style>.cls-1{fill:#b0c06b;}.cls-1,.cls-2,.cls-3,.cls-4,.cls-5,.cls-6{fill-rule:evenodd;stroke-width:0px;}.cls-2{fill:#45a5ad;}.cls-3{fill:#828285;}.cls-4{fill:#b71c24;}.cls-5{fill:#babdbf;}.cls-6{fill:#01547e;}</style></defs><g id="Capa_1-2"><path class="cls-5" d="m103.83,54.95l-15.67-24.14-19.79,30.71h4.01l7.84-12.06h14.9l3.55,5.49h5.17Zm-10.92-8.73h-10.59l5.3-8.19,5.3,8.19Z"/><path class="cls-5" d="m52.76,52.76h.19v-22.6h-1.39l-.21-.05-.23-.27-.24-.15-.22-.25-.13-.34v-.33l.07-.29.15-.25.2-.2.22-.13.21-.08.21-.05h6.08c2.86.02,5.67.72,8.2,2.06,12.27,6.59,7.89,24.64-5.6,25.18h-8.28l-.21-.14h-.23l-.23-.15-.2-.24-.09-.36v-.58l.13-.27.19-.21.22-.14.21-.09.21-.05h.76v-.03Zm4.27-22.07v21.41c18.17,0,15.25-21.41,0-21.41Z"/><path class="cls-3" d="m.82,54.98h4.27c7.88-12.11,10.07-15.61,13.98-21.69,2.77,6.33,5.24,12.72,7.89,19.4l.1.25.09.23.18.44.14.39.14.35.05.14v1l.05.17.21.16.05.13.07.12.08.12.09.11.1.1.1.08.1.07h.08l.09.06.1.06h1.11l.13-.06.12-.07.13-.09.12-.12.09-.12.09-.13.06-.13.06-.13v-.38l.06-.39v-.2l.05-.21.05-.2.06-.18.05-.18.06-.17.05-.15.07-.14v-.14l.06-.13v-.38l9.63-15.8v24.45h8.14l.25-.06.26-.11.23-.15.19-.22.14-.25.08-.26v-.54l.23-.34-.15-.28-.23-.22-.27-.15-.25-.1h-4.06v-.64l.06-30.44h-2.32l-12.92,21.24-8.48-21.34h-3.35C12.43,36.67,6.65,45.9.82,54.98Z"/><path class="cls-4" d="m66.82,18.84c1.93-1.77,4.21-3.14,6.68-4.01,2.07-.62,3.77-.26,4.81.96l-3.75-.75c-1.05,1.36-2.17,2.78-3.4,4.33l1.93.19c-.78,1.04-2.6,3.58-3.85,5.25-1.14-1.84-1.95-3.86-2.39-5.97h-.03Zm10.29,10.92h-.17c-1.51-.01-2.99-.47-4.25-1.32.96-1.53,2.89-4.37,3.5-5.43.1.66.19,1.33.3,1.98.89-1.56,1.71-3,2.48-4.37-.2-1.57-.41-3.15-.62-4.74.02.03.05.06.07.1.96,1.38,1.21,3.48.9,6.04-.4,2.65-1.14,5.24-2.21,7.7v.04Z"/><path class="cls-6" d="m76.52,0c1.12,1.93,1.94,4.02,2.43,6.2.51,1.83.37,3.77-.39,5.51.1-1.35.18-2.66.27-3.94l-2.52-3.53c-.06.57-.13,1.16-.19,1.74l-3.41-4.69.46-.39c1.03-.55,2.18-.86,3.35-.9Zm-9.86,10.59c.49-2.2,1.39-4.28,2.66-6.14,1.06,1.33,3.1,4,3.94,5l-1.82.37,3.35,3.85c1.14-.37,2.18-.7,3.14-1.03-1.13,1.07-2.71,1.52-4.24,1.22-2.57-.5-4.99-1.62-7.03-3.26Z"/><path class="cls-2" d="m85.46,12.22c-.41.67-1.06,1.17-1.81,1.4-1.05.17-2.08-.39-2.51-1.36l2.27,1.09c.49-.81.96-1.59,1.39-2.33l-.78-.51.79-1.28c.29.98.51,1.98.65,2.99Zm-4.43-9.71c.91.94,1.69,2,2.31,3.16-.34.46-.69.96-1.07,1.41l-.23-1.59-1.76,2.11.54,4.09c-.72-1.7-.99-3.56-.8-5.39.08-1.31.41-2.59.96-3.78h.05Z"/><path class="cls-1" d="m81.38,26.83c-.66-1.48-1.04-3.07-1.13-4.69-.17-2,.16-4.02.96-5.86-.22,1.52-.44,3.05-.66,4.65l1.85,2.47c.09-.59.16-1.18.25-1.77.41.59.81,1.16,1.2,1.7-.64,1.28-1.46,2.46-2.45,3.49h-.03Zm4.5-10.92c-.11,1.18-.31,2.35-.61,3.5l-.85-1.4.8-.49-1.46-2.46-2.5,1.06h0c.8-1.47,1.76-1.93,2.74-1.65.76.26,1.42.76,1.86,1.43h.02Z"/><path class="cls-3" d="m4.56,68.77c.48-.56,1.19-.85,1.93-.79,1.64,0,2.66.75,2.66,2.46v4.91h-1.44v-4.91c0-.86-.27-1.43-1.19-1.43s-1.16.59-1.16,1.43v4.91h-1.49v-4.91c0-.85-.27-1.43-1.18-1.43s-1.18.53-1.18,1.36v4.99H0v-7.37h1.46v.26c.37-.18.77-.27,1.18-.26.73-.06,1.45.23,1.93.79h0Zm9.73,6.33c-.37.18-.78.26-1.18.25-1.63,0-2.65-.75-2.65-2.46v-4.91h1.46v4.91c0,.85.26,1.44,1.18,1.44s1.18-.54,1.18-1.37v-4.99h1.47v7.37h-1.47v-.25Zm2.8-7.11v-1.55l1.46-.54v2.1h2.69l-.68,1.02h-2v3.85c0,.85.26,1.44,1.18,1.44.37.04.74-.12.96-.42l.17-.27.96.96-.22.18c-.55.38-1.2.57-1.87.53-1.63,0-2.65-.75-2.65-2.46v-3.85h-.47v-1h.46Zm9.1,7.11c-.37.17-.77.26-1.17.25-1.64,0-2.66-.75-2.66-2.46v-4.91h1.47v4.91c0,.85.26,1.44,1.18,1.44s1.17-.54,1.17-1.37v-4.99h1.47v7.37h-1.47v-.25Zm6.63-4.65h0c0-.85-.27-1.43-1.18-1.43-.37-.04-.74.12-.96.42l-.17.26-.96-.96.21-.17c.55-.37,1.21-.55,1.87-.52,1.63,0,2.66.75,2.66,2.46v4.91h-1.45v-.31c-.36.17-.76.26-1.16.25h0c-1.63,0-2.65-.75-2.65-2.46s1.02-2.45,2.65-2.45h1.16Zm0,.96h-1.18c-.91,0-1.18.58-1.18,1.43s.26,1.44,1.18,1.44,1.18-.61,1.18-1.44v-1.43Zm4.27-5.57v9.46h-1.47v-8.87l1.47-.6Zm14.04,2.1v-1.5l1.47-.54v9.46h-1.47v-.26c-.36.18-.75.26-1.15.25h0c-1.63,0-2.64-.75-2.64-2.46v-2.46c0-1.7,1.01-2.46,2.64-2.46l1.15-.05Zm0,1.02h-1.17c-.96,0-1.18.58-1.18,1.43v2.46c0,.85.27,1.44,1.18,1.44s1.17-.54,1.17-1.37v-3.97Zm4.43-5.1l-.16,2.22h-1.16l-.18-2.22h1.5Zm5.02,6.55h0c0-.85-.27-1.43-1.17-1.43-.37-.04-.74.12-.96.42l-.17.26-.96-.96.22-.17c.55-.37,1.21-.55,1.87-.52,1.63,0,2.65.75,2.65,2.46v4.91h-1.46v-.26c-.36.17-.75.26-1.15.25h0c-1.64,0-2.66-.75-2.66-2.46s.99-2.45,2.63-2.45l1.17-.05Zm0,.96h-1.17c-.96,0-1.18.58-1.18,1.43s.25,1.44,1.18,1.44,1.17-.61,1.17-1.44v-1.43Zm6.63,3.74c-.37.18-.78.26-1.18.25-1.63,0-2.65-.75-2.65-2.46v-2.46c0-1.7,1.03-2.46,2.65-2.46h2.66v7.11c0,1.69-1.02,2.45-2.66,2.45h-.25v-1.01h.25c.96,0,1.17-.6,1.18-1.43Zm0-6.09h-1.18c-.96,0-1.18.58-1.18,1.43v2.46c0,.85.26,1.44,1.18,1.44s1.18-.54,1.18-1.37v-3.97Zm2.8,3.85v-2.42c0-1.7.96-2.46,2.65-2.46s2.65.75,2.65,2.46v2.46c0,1.7-.96,2.46-2.65,2.46s-2.65-.75-2.65-2.46v-.04Zm2.65,1.44c.96,0,1.17-.61,1.17-1.44v-2.42c0-.85-.26-1.43-1.17-1.43s-1.19.58-1.19,1.43v2.46c0,.85.27,1.44,1.19,1.44v-.04Zm6.49-5.33c-.64,0-1.05.2-1.05.89s.96,1.14,1.44,1.36c.87.39,2.12,1.1,2.12,2.19,0,1.49-1.21,1.93-2.51,1.93s-2.51-.42-2.51-1.93v-.22h1.46v.25c0,.69.4.91,1.05.91s1.05-.21,1.05-.91-.88-1.15-1.42-1.33h-.08l-.07-.05c-.7-.47-1.99-1.18-1.99-2.15,0-1.49,1.22-1.93,2.51-1.93s2.51.41,2.51,1.93v.25h-1.46v-.25c0-.68-.41-.89-1.05-.89v-.05Zm3.85-1.02v-1.51l1.46-.54v2.1h2.69l-.67,1.02h-2.01v3.85c0,.85.27,1.44,1.19,1.44.37.04.74-.12.96-.42l.18-.27.96.96-.22.18c-.54.38-1.2.57-1.86.53-1.65,0-2.66-.75-2.66-2.46v-3.85h-.47v-1l.44-.04Zm6.74,0v7.37h-1.46v-7.33l1.46-.04Zm0-1.51v1.2h-1.46v-1.2h1.46Zm2.81,1.77c.37-.18.77-.27,1.18-.26,1.64,0,2.66.75,2.66,2.46v4.91h-1.48v-4.91c0-.85-.26-1.43-1.18-1.43s-1.18.53-1.18,1.36v4.99h-1.45v-7.33h1.45v.22Zm5.18,4.65v-2.42c0-1.7.96-2.46,2.64-2.46s2.65.75,2.65,2.46v2.46c0,1.7-.96,2.46-2.65,2.46s-2.64-.75-2.64-2.46v-.04Zm2.64,1.44c.96,0,1.17-.61,1.17-1.44v-2.42c0-.85-.26-1.43-1.17-1.43s-1.18.58-1.18,1.43v2.46c0,.85.27,1.44,1.18,1.44v-.04Z"/></g></svg>