<?xml version="1.0" encoding="UTF-8"?><svg id="Capa_2" xmlns="http://www.w3.org/2000/svg" viewBox="0 0 150.59 169.82"><defs><style>.cls-1{fill-rule:evenodd;}.cls-1,.cls-2{fill:#971b30;stroke-width:0px;}</style></defs><g id="Capa_4"><path class="cls-2" d="m142.35,84.9h0v-32.64c0-3.25-2.31-7.25-5.12-8.87L80.23,10.48c-2.82-1.63-7.43-1.63-10.25,0L12.98,43.39c-2.82,1.63-5.12,5.62-5.12,8.87v32.64h0v33.09c0,3.25,2.3,7.25,5.12,8.87l57,32.91c2.82,1.63,7.43,1.63,10.25,0l57-32.91c2.82-1.63,5.12-5.62,5.12-8.87v-33.09Zm6.02.05c0,18.63,2.22,28.14,2.22,33.93s-2.49,11.77-9.39,15.36c-3.07,1.6-18.43,6.64-29.99,13.56-10.36,6.21-19.82,14.93-24.78,18.35-6.94,4.79-15.1,4.9-21.77.23-5.72-4-12.81-11.62-26.03-19.16-12.68-7.23-24.53-10.22-29.71-13.16-4.7-2.67-8.93-7.39-8.93-15.27,0-5.97,2.41-22.59,2.42-33.84h0v-.1h0c0-11.25-2.42-27.88-2.42-33.84,0-7.88,4.23-12.6,8.93-15.27,5.18-2.94,17.03-5.93,29.71-13.16,13.22-7.54,20.31-15.16,26.03-19.16,6.67-4.67,14.83-4.55,21.77.23,4.96,3.42,14.42,12.14,24.78,18.35,11.56,6.93,26.92,11.96,29.99,13.56,6.9,3.59,9.39,9.74,9.39,15.36s-2.21,15.3-2.22,33.93h0v.1h0Z"/><path class="cls-1" d="m83.67,48.09c-8.46-5.15-7.82-5-16.28.16-2.94,1.79-5.87,3.58-8.81,5.37-3.38,2.06-6.76,4.12-10.14,6.18-7.22,4.4-6.94,3.89-6.94,12.69v24.4c0,9.05-.35,8.57,7.08,13.09,3.34,2.03,6.67,4.07,10.01,6.1,3.2,1.95,6.41,3.9,9.61,5.86,7.56,4.61,7,4.84,14.55.24,3.34-2.03,6.67-4.07,10.01-6.1,3.47-2.11,6.94-4.23,10.41-6.34,7.07-4.31,6.67-3.9,6.67-12.52v-24.72c0-8.62.4-8.22-6.67-12.52-3.47-2.11-6.94-4.23-10.41-6.34-3.03-1.84-6.05-3.69-9.08-5.53h0Zm16.31,16.97v7.99c0,.09-.05.18-.13.23-.04.02-.08.03-.13.03-.05,0-.1-.01-.14-.04l-2.22-1.39-.1-.06v35.65c0,.15-.12.26-.26.26h-6.45c-.15,0-.26-.12-.26-.26v-5.83l-11.32-5.49v17.43c0,.15-.12.26-.26.26h-6.45c-.14,0-.26-.12-.26-.26v-17.42l-.09.05-11.18,5.43-.04.02v5.81c0,.15-.12.26-.26.26h-6.45c-.14,0-.26-.12-.26-.26v-35.65l-.1.06-2.22,1.39s-.09.04-.14.04c-.04,0-.09-.01-.13-.03-.08-.05-.13-.13-.13-.23v-7.99c0-.09.05-.18.13-.23l5.83-3.37c.03-.1.13-.18.24-.18s.21.07.25.18l5.83,3.37c.08.05.13.13.13.23v7.99c0,.09-.05.18-.14.23-.04.02-.08.03-.13.03-.05,0-.1-.01-.14-.04l-2.22-1.39-.1-.06v10.59l.04.02,11.18,5.43.09.05v-7.18.28-.96h-3.87c-.14,0-.26-.12-.26-.26v-6.16c0-.15.12-.26.26-.26h3.87v-11.42l-.1.06-2.22,1.39s-.09.04-.14.04c-.04,0-.09-.01-.13-.03-.08-.05-.14-.13-.14-.23v-7.99c0-.09.05-.18.13-.23l5.95-3.43s.09-.04.13-.04.09.01.13.04l5.95,3.43c.08.05.13.13.13.23v7.99c0,.1-.05.18-.13.23-.04.02-.08.03-.13.03-.05,0-.1-.01-.14-.04l-2.22-1.39-.1-.06v11.42h3.87c.15,0,.26.12.26.26v6.16c0,.14-.12.26-.26.26h-3.87v7.88l11.32-5.49v-10.6l-.1.06-2.22,1.39s-.09.04-.14.04c-.04,0-.09-.01-.13-.03-.08-.05-.14-.13-.14-.23v-7.99c0-.09.05-.18.13-.23l5.95-3.43s.09-.04.13-.04c.05,0,.09.01.13.04l5.95,3.43c.08.05.13.13.13.23Z"/><polygon class="cls-2" points="70.36 92.09 60.76 96.75 60.67 96.79 60.67 96.69 60.67 96.49 60.67 87.38 60.67 87.37 60.67 87.27 60.76 87.31 70.36 91.97 70.48 92.03 70.36 92.09"/><path class="cls-2" d="m77.23,78.18c-.15,0-.26.12-.26.26v9.49h-2.98v-9.49c0-.15-.12-.26-.26-.26h-4.05v-2.97h4.05c.14,0,.26-.12.26-.26v-3.66h2.98v3.66c0,.15.12.26.26.26h4.05v2.97h-4.05Z"/><polygon class="cls-2" points="90.19 96.74 80.61 92.09 80.49 92.03 80.61 91.97 90.19 87.32 90.28 87.28 90.28 87.38 90.28 87.4 90.28 96.48 90.28 96.68 90.28 96.78 90.19 96.74"/><path class="cls-2" d="m22.68,81.6c-.81.23-1.59.33-2.34.29h0c-.33.01-.73-.06-1.19-.22-.93-.31-1.73-.87-2.4-1.68-.68-.84-1.05-1.8-1.11-2.89-.05-.37-.02-.75.07-1.13,0-.04.02-.07.02-.1h0c.23-.87.76-1.74,1.58-2.58.24-.24.49-.47.75-.68.64-.49,1.22-.78,1.74-.88,1.04-.23,1.72,0,2.04.65.14.3.22.59.23.87-.09.61-.43,1.16-1.04,1.64-.04.02-.08.06-.13.1h-.01c-.23.2-.42.4-.59.63-.63.88-.65,1.68-.07,2.41.23.23.54.41.9.53.75.24,1.47.08,2.18-.49.39-.32.85-.91,1.4-1.76.75-1.2,1.39-2.12,1.91-2.77.66-.84,1.48-1.29,2.47-1.34,1.16,0,2.13.54,2.91,1.59.63.92.92,1.93.87,3.05,0,.1-.02.21-.04.35,0,.07-.02.14-.02.22-.17,1.06-.49,1.65-.96,1.76-.43.1-1.22-.02-1.67-.37-.25-.29-.24-.67.02-1.13.34-.5.27-1,.17-1.46-.1-.46-.46-.76-.85-.85-.19-.05-.41,0-.67.16-.54.29-1.02.93-1.44,1.93-.02.03-.04.07-.06.11-1.05,2.22-2.56,3.56-4.53,4.04-.02,0-.04,0-.06.01-.02,0-.04.01-.04.01h-.03Z"/><path class="cls-2" d="m33.16,88.3v.2c.06,1.44-1.92,2.81-5.94,4.11-1.3.41-3.3.85-6.01,1.32-1.91.62-3.19.94-3.81.96-.89.03-1.54-.66-1.95-2.09-.04-1.13.79-1.73,2.49-1.79.74-.03,1.09-.42,1.07-1.17l-.05-1.22c-.03-.75-.39-1.11-1.09-1.08-.61.06-1.07.1-1.38.11-.64-.12-.98-.7-1.02-1.75v-.14c-.04-1,1.1-1.61,3.42-1.85l1.49-.06c3.39-.13,6.89.54,10.49,2.01,1.49.8,2.26,1.61,2.29,2.44Zm-8.79-.83l-.53.02c-.93.04-1.38.47-1.35,1.32.02.55.43.95,1.22,1.21.43.03.75.04.98.04l.67-.03c2-.2,2.99-.6,2.97-1.17v-.07c-.03-.74-1.35-1.18-3.96-1.31Z"/><path class="cls-2" d="m17.86,107.91c-1.7.05-2.85-2.46-1.69-3.53.86-.79,6.04-3.47,6.69-4.12.28-.24.39-.42.35-.54-.11-.32-.4-.46-.87-.41-.03,0-.08,0-.13.02-.06,0-.1.01-.12.02h-.01c-3.57.4-5.46.55-5.68.47-.24-.09-.43-.22-.58-.38h0c-.25-.2-.39-.58-.42-1.15-.04-.66.14-1.17.53-1.52.37-.34,1.04-.53,2.01-.58.55-.02,1,0,1.36.04,4.13.11,7.06.07,8.78-.13l3.31-.14c.15,0,.38.04.68.13.42.18.66.47.71.88.02-.03,0,.04-.03.22-.04.17-.1.33-.19.49-.21.32-.52.6-.93.85-.62.38-1.67.97-3.14,1.75-1.3.52-2.29,1.29-2.96,2.32-.22.24-.29.45-.21.64.06.16.68.16,1.86,0,.34-.04.82-.11,1.43-.21.59-.09.95-.15,1.11-.17h.01c.83-.08,1.6-.22,2.27.01.85.3,1.24.81,1.18,1.53.03.69-.19,1.2-.68,1.52-.31.21-1.04.49-1.97.5-5.51.07-10.99,1.46-12.65,1.5Z"/><path class="cls-2" d="m41.84,115.74c.05-.77-.5-1.51-.99-1.68-.49-.18-1.14-.07-1.92.32-.79.39-1.74,1.57-2.74,2.48-1,.91-4.55,4.42-5.73,5.03-.38.2-.75.35-.53-.34.36-1.15,2.71-6.37,3.26-7.31.55-.94,1.2-1.96,1.68-2.86.95-1.78-1.69-2.91-2.55-2.35-.86.56-2.1,1.8-2.97,3.71-.87,1.91-1.51,3.41-1.91,4.5-.41,1.09-.73,2.06-.97,2.91-.24.85-.34,1.71-.31,2.61.03.89.31,1.59.83,2.09.52.5,1.01.8,1.47.9.46.09,1.14.04,2.01-.14.88-.19,1.79-.56,2.74-1.12.95-.56,5.07-4.42,6.31-5.58,1.24-1.16,2.27-2.39,2.32-3.15Z"/><path class="cls-2" d="m40.74,121.31c.49-.42.94-.5,1.36-.23.46.39.82.64,1.07.75.19.11.32.3.39.57.06.26,0,.62-.18,1.09-.03.07-.08.18-.14.32-.04.1-.09.22-.17.36-.09.18-.17.33-.22.45-.29.7-.58,1.26-.86,1.7-.11.16-.27.41-.47.74-1.57,2.47-2.39,3.75-2.47,3.84-.66.75-1.25,1.15-1.78,1.18-.38.02-.75-.13-1.12-.45.02.02-.03-.02-.13-.13-.3-.39-.46-.72-.49-1.01.01-1.84.49-3.35,1.42-4.54,1.07-1.35,1.85-2.33,2.33-2.94.03-.04.07-.1.15-.18.06-.08.11-.14.15-.18.34-.43.59-.73.73-.9.16-.18.24-.28.24-.28,0,0,.06-.06.19-.17Zm1.42-2.62c.05-.64.27-1.19.64-1.65.41-.5.89-.74,1.45-.73.05,0,.12,0,.19.01.63.08,1.12.43,1.48,1.03.34.57.47,1.18.38,1.83-.05.41-.19.78-.42,1.08-.38.5-.94.74-1.67.72-.08,0-.13,0-.16,0-.71-.05-1.23-.31-1.56-.79-.27-.41-.38-.91-.33-1.5Z"/><path class="cls-2" d="m73.26,142.46c-.88,2.66-1.16,5.39-1.27,5.69-.22.58-.55.92-.99,1.02-.58.13-1.05-.21-1.4-1.04-.42-1.09-.8-2.78-1.13-5.06-.08-.52-.29-1.2-.64-2.05-.12-.35-.24-.52-.37-.53-.34-.02-.57.2-.71.65-.01.03-.02.07-.04.13-.01.06-.02.09-.03.12h0c-.98,3.47-1.55,5.28-1.71,5.45-.17.18-.36.31-.57.39h-.01c-.27.15-.67.14-1.21-.04-.62-.21-1.03-.57-1.21-1.07-.17-.47-.1-1.16.23-2.08.19-.51.37-.93.55-1.25,1.66-3.79,2.73-6.51,3.19-8.18l1.12-3.12c.05-.14.18-.34.37-.58.33-.32.69-.43,1.08-.33-.02-.03.04.01.19.11.14.1.27.22.38.36.22.31.36.71.44,1.19.12.72.27,1.91.43,3.57,0,1.4.34,2.6,1.03,3.62.14.29.44.63.52.44.82-2.02.85-3.62,1.32-4.14.6-.67,1.52-.94,2.16-.61.65.23,1.14.62,1.16,1.2.05,1.83-1.99,3.49-2.87,6.15Z"/><path class="cls-2" d="m77.56,130.42l.54-.11c.38-.09.89-.22,1.5-.4.73-.22,1.2-.36,1.41-.41,1.01-.26,1.74-.25,2.17.03.29.19.48.49.56.87v.04c.2.63.12,1.16-.23,1.57-.32.26-.73.46-1.25.58-.78.19-1.32.35-1.62.46-.53.22-.84.58-.94,1.09-.12,0-.05.67.21,2h0c.11.7.23,1.36.38,2,.16.78.5,1.93,1.03,3.45.45,1.32.99,3.61,1.1,4.15.23,1.16.2,1.96-.1,2.41-.26.38-.74.63-1.44.75-.56.09-1.01-.14-1.33-.7-.29-.51-.57-1.43-.84-2.77l-.31-1.66c-.09-.82-.28-2.28-.57-4.4-.11-.99-.25-1.86-.4-2.6-.2-1.24-.44-1.97-.73-2.19-.13-.19-.32-.33-.54-.44-.15-.08-.33-.15-.54-.19-.15-.03-.27-.04-.35-.03-.31,0-.63.07-.95.18-.31.11-.66.12-1.05.04-.63-.22-.97-.66-1.01-1.33-.12-.53-.03-.94.25-1.23.24-.25.65-.45,1.22-.58.35-.08.96-.17,1.82-.27.89-.1,1.33-.15,1.33-.15,0,0,.22-.05.67-.15Z"/><path class="cls-2" d="m84.33,132.24c0-.71.26-1.43.77-2.16.44-.63,1.02-1.19,1.73-1.68.77-.53,1.5-.9,2.19-1.11.87-.26,1.52-.21,1.96.16.22.18.38.36.48.54.08.14.13.28.14.42.21.53-.03,1.11-.72,1.75-.34.32-.71.59-1.1.8-.54.33-.96.62-1.27.87-.57.45-.88.83-.95,1.16-.06.04-.08.19-.06.47.02.39.21.8.55,1.23.21.26.53.36.96.29.01,0,.03,0,.05,0,.12-.02.24-.05.38-.09.52-.14,1-.28,1.42-.44,0,0,.03-.01.08-.03.8-.31,1.27-.25,1.42.19.09.17.14.38.17.63.04.48-.13.89-.5,1.23-.34.22-.66.46-.97.73-.27.17-.53.39-.77.67-.46.55-.6,1.09-.4,1.64,0,0,0,.01,0,.02h0c.06.23.19.49.38.79.24.55.54.9.88,1.05,0,0,.01,0,.02,0h.02c.06.03.12.04.19.04h.03s.02,0,.03,0c0,0,.01.01.02.02.03,0,.03,0,.02-.01.15-.01,1.13-.45,2.95-1.3.61-.2,1.06-.18,1.33.04.15.17.26.28.32.33.52.47.62,1.06.3,1.77-.39.85-1.35,1.71-2.86,2.59-.63.36-1.32.55-2.07.56-.94,0-1.74-.31-2.42-.93-.74-.69-1.47-1.65-2.2-2.89-.89-1.52-1.55-3.48-1.98-5.89-.13-.63-.27-1.54-.43-2.72-.07-.24-.1-.48-.09-.71Z"/><path class="cls-2" d="m103.34,122.85c2.07.9,3.65,2.23,4.76,4,.8,1.28,1.25,2.85,1.35,4.69.09,1.72-.15,3.11-.72,4.16-.7,1.3-1.41,2.23-2.14,2.8-.93.56-1.71.77-2.35.61-.48-.12-.89-.35-1.25-.69-1.28-1.31-2.93-3.62-4.95-6.91-1.91-3.12-2.98-5.13-3.19-6.04-.09-.37,0-.74.28-1.11.42-.54,1.19-1,2.32-1.38.59-.25,1.3-.44,2.12-.57,1.58-.26,2.84-.12,3.78.44Zm2.2,7.55c-.27-1.05-.94-2.07-2.03-3.05-1.13-.89-2.11-1.31-2.96-1.26-.43.02-.69.16-.77.43-.11.4.6,1.85,2.13,4.34,1.52,2.45,2.46,3.76,2.84,3.93.06.03.11.05.16.04.15-.01.3-.13.44-.35.23-.38.37-.93.42-1.66.06-.78-.02-1.59-.24-2.42Z"/><path class="cls-2" d="m106.67,119.48c0-.71.26-1.43.77-2.16.45-.63,1.02-1.19,1.73-1.68.77-.53,1.5-.9,2.19-1.11.87-.26,1.52-.21,1.96.16.22.18.38.36.48.54.08.14.13.28.14.42.21.53-.03,1.11-.72,1.75-.34.32-.71.59-1.1.8-.53.33-.96.62-1.27.87-.57.45-.88.83-.95,1.16-.06.04-.08.19-.06.47.02.39.21.8.55,1.23.21.26.54.36.96.29.01,0,.03,0,.05,0,.12-.02.24-.05.38-.09.52-.14,1-.28,1.42-.44,0,0,.03-.01.08-.03.8-.31,1.27-.25,1.41.19.09.17.15.38.17.63.04.48-.13.89-.5,1.23-.34.22-.66.46-.97.73-.27.17-.53.39-.77.67-.46.55-.6,1.09-.4,1.64,0,0,0,.01,0,.02h0c.06.23.19.49.38.79.24.55.54.9.88,1.05,0,0,.01,0,.02,0h.02c.06.03.12.04.19.04h.03s.02,0,.03,0c0,0,.01.01.02.02.03,0,.03,0,.02-.01.15-.01,1.13-.45,2.95-1.3.61-.2,1.06-.18,1.33.04.15.17.26.28.32.33.52.47.62,1.06.3,1.77-.39.85-1.35,1.71-2.86,2.59-.63.36-1.32.55-2.07.56-.94,0-1.74-.31-2.42-.93-.74-.69-1.47-1.65-2.2-2.89-.89-1.52-1.55-3.48-1.98-5.89-.13-.63-.27-1.54-.43-2.72-.06-.24-.09-.48-.09-.71Z"/><path class="cls-2" d="m118.66,105.04c1.71-2.12,3.55-2.68,5.51-1.69,1.08.54,1.93,1.18,2.54,1.94.68.85,1.09,1.85,1.21,3.01.07.67.04,1.64-.1,2.89-.1.94,0,1.66.31,2.15.04.07.09.14.14.2.31.39,1.4.85,3.26,1.38.45.13.74.26.88.4.13.11.2.3.21.56.06.8-.11,1.39-.5,1.79l-.06.06c-.14.14-.72.12-1.72-.08-.95-.19-1.94-.45-2.96-.79-1.05-.35-1.86-.62-2.43-.8-1.33-.42-3.32-.99-5.95-1.7-1.5-.41-2.39-.66-2.69-.77-.06-.02-.12-.06-.17-.11-.42-.52-.39-1.69.09-3.51.52-1.94,1.33-3.58,2.41-4.93Zm4.8,1.43c-.55-.31-1.11-.4-1.71-.26-.59.14-1.13.48-1.62,1.03-.46.52-.77,1.09-.94,1.71-.2.68-.16,1.21.12,1.58.42.56,1.18.99,2.29,1.28,1.02.27,1.79.31,2.3.13.27-.1.53-.29.79-.57.32-.35.53-.74.64-1.18.23-1-.14-2.01-1.1-3.01-.22-.23-.48-.46-.76-.69Z"/><path class="cls-2" d="m119.05,96.86l.04-.2c.23-1.42,2.45-2.36,6.65-2.83,1.35-.14,3.4-.17,6.15-.09,2-.22,3.31-.28,3.93-.18.88.15,1.38.96,1.49,2.44-.18,1.12-1.12,1.54-2.8,1.26-.73-.12-1.16.19-1.28.94l-.2,1.2c-.12.74.16,1.16.85,1.28.61.06,1.07.12,1.38.17.6.25.82.89.65,1.92l-.02.14c-.16.98-1.41,1.36-3.73,1.13l-1.48-.24c-3.35-.56-6.64-1.91-9.87-4.07-1.3-1.08-1.89-2.03-1.75-2.85Zm8.45,2.57l.52.09c.92.15,1.45-.19,1.59-1.02.09-.54-.23-1.02-.95-1.43-.41-.12-.73-.19-.95-.23l-.67-.11c-2-.2-3.05-.02-3.15.55v.07c-.13.73,1.07,1.42,3.6,2.08Z"/><path class="cls-2" d="m133.58,68.53c1.02-.04,1.77.17,2.24.62.47.46.59,1.38.35,2.76-.25,1.38-.31,2.59-.18,3.62.13,1.03.13,1.79.01,2.28-.11.49-.5.8-1.16.93-.66.14-1.38.08-2.16-.17-.77-.24-2.6-.51-5.47-.8-3.85-.08-6.08-.05-6.68.08-.59.14-1.05.08-1.37-.18-.31-.27-.47-.89-.47-1.88s.27-1.52.8-1.59c1.13-.18,2.06-.2,2.82-.06.75.14,2.29.26,4.61.38,2.32.12,3.9.15,4.76.09.9.16,1.21-.64.94-2.39-.08-1.25-.06-2.17.07-2.76.13-.59.43-.9.9-.93Z"/><path class="cls-2" d="m41.2,133.06c-.3-1.93.58-4.5,2.64-7.7,1.74-2.25,3.45-3.53,5.13-3.85,1.68-.32,3.11-.06,4.31.77l.1.07c1.15.83,1.87,1.83,2.15,3.02.29,1.21.17,2.28-.37,3.21-.48.84-1.22,1.05-2.21.62-.29-.13-.54-.27-.73-.41-.47-.34-.65-.71-.54-1.11.23-.84.04-1.56-.56-2.15-.08-.07-.15-.14-.23-.2-.6-.43-1.37-.42-2.3.02-1,.47-1.96,1.46-2.87,2.97-.94,1.54-1.2,2.86-.76,3.95.2.52.47.9.81,1.15.42.31.94.4,1.56.29.91-.16,1.63-.05,2.18.34.49.35.61.93.36,1.75-.26.86-.99,1.48-2.18,1.85-1.21.38-2.52.18-3.94-.58-.18-.1-.36-.21-.52-.33-1.09-.78-1.77-2.01-2.03-3.68Z"/><path class="cls-2" d="m119.23,84.08c.54.71.79,1.31.75,1.81-.04.5-.29.78-.74.87-.45.08-.97,0-1.57-.24-.6-.24-1.08-.6-1.46-1.08-.37-.48-.47-.94-.29-1.37.18-.43.49-.77.93-1.02.44-.25.83-.26,1.18-.04.35.22.75.58,1.2,1.08Zm15.46,6.24c.45-.36.87-.83,1.24-1.42.43-.69.63-1.32.59-1.88-.05-.78-.33-1.57-.82-2.37-.32-.54-.65-.95-.98-1.21-1.14-.91-2.44-1.64-3.91-2.19-2.52-.95-5.35-1.32-8.5-1.12-.69.07-1.3.38-1.83.92-.35.38-.52.73-.51,1.05,0,.33.2.71.59,1.14.24.25.75.39,1.53.42.48.02,1.29-.02,2.45-.12,1.92-.15,3.26-.18,4.04-.11,1.41.15,2.45.65,3.12,1.5.26.33.44.87.55,1.62v.11c-.29,1.08-1.05,1.73-2.31,1.94-.91.15-2.28.08-4.11-.21-1.6-.26-2.75-.4-3.44-.41-1.15-.02-1.95.19-2.39.64-.03.03-.09.09-.18.19-.29.32-.48.64-.55.97-.11.51.06.96.52,1.36.64.55,1.53.74,2.67.59.19-.05.5-.09.94-.1.34-.06.78-.09,1.31-.09l1.66-.04c.72-.02,6.55.22,8.3-1.19Z"/><path class="cls-2" d="m58.57,128.22c.58-.35,1.31-.5,2.16-.44.74.05,1.48.25,2.23.59.81.37,1.47.79,1.97,1.26.64.59.91,1.16.81,1.71-.05.27-.12.49-.22.67-.08.14-.17.25-.28.33-.34.44-.93.53-1.79.28-.43-.13-.83-.3-1.19-.51-.53-.28-.97-.48-1.33-.61-.64-.25-1.12-.31-1.42-.2-.06-.03-.2.03-.42.18-.32.22-.57.57-.75,1.07-.11.31-.04.62.22.95,0,.01.01.02.03.04.07.09.16.18.26.27.37.37.71.68,1.05.95,0,0,.03.02.06.05.65.51.82.93.53,1.27-.1.16-.25.31-.44.45-.38.27-.8.34-1.26.21-.34-.17-.7-.31-1.07-.44-.27-.14-.58-.25-.92-.3-.68-.11-1.19.05-1.55.49,0,0,0,0-.01,0h0c-.15.17-.31.4-.46.72-.34.47-.49.89-.44,1.26,0,0,0,0,0,.02v.02c.01.06.08.19.08.19,0,.01,0,.02.02.02,0,0,.02.05.02.04.08.12,2.13,1.12,3.71,2.2.46.41.66.78.61,1.12-.07.21-.11.36-.12.43-.14.67-.83,1.29-1.58,1.38-.89.1-3.03-.91-4.48-1.73-.6-.34-1.09-.82-1.46-1.44-.45-.78-.58-1.6-.39-2.47.21-.96.66-2.05,1.34-3.27.83-1.5,2.14-3.03,3.93-4.59.46-.42,1.14-1,2.05-1.72.17-.17.35-.32.55-.43Z"/><path class="cls-2" d="m25.84,64.54c-1.96-.24-4.2-1.81-6.73-4.7-1.7-2.31-2.47-4.33-2.31-6.05.16-1.71.8-3.04,1.94-3.96l.1-.08c1.12-.88,2.3-1.3,3.53-1.25,1.25.06,2.26.47,3.02,1.25.69.7.68,1.47-.02,2.32-.21.25-.41.45-.6.6-.46.36-.87.43-1.23.21-.75-.45-1.5-.47-2.25-.06-.09.05-.18.11-.25.17-.59.46-.79,1.21-.62,2.24.18,1.1.87,2.31,2.09,3.61,1.23,1.34,2.44,1.96,3.62,1.84.56-.05,1.01-.2,1.34-.47.41-.33.65-.8.71-1.43.1-.92.41-1.6.93-2.02.48-.38,1.08-.33,1.79.13.76.49,1.16,1.37,1.19,2.63.03,1.28-.52,2.5-1.66,3.66-.15.15-.3.29-.46.41-1.06.84-2.44,1.16-4.13.95Z"/><path class="cls-2" d="m31.76,56.77c-1.05-.69-2.22-2.06-3.53-4.11-1.25-1.98-1.96-3.47-2.11-4.49-.18-1.19-.18-2.14,0-2.87.25-.97.86-1.88,1.84-2.71.75-.65,1.64-1.03,2.67-1.15.91-.11,1.77-.01,2.57.31.76.3,1.67,1.03,2.74,2.18.95,1.01,1.72,2.02,2.32,3.04.83,1.38,1.38,2.39,1.67,3.03.56,1.23.79,2.25.68,3.04-.18,1.39-.96,2.64-2.36,3.76-.95.75-2.08,1.09-3.39,1.01-1.13-.06-2.16-.4-3.1-1.02Zm.7-11c-.77-.48-1.42-.64-1.94-.5-.78.21-1.16,1.09-1.11,2.64.02.89.42,1.94,1.21,3.15.8,1.23,1.65,2.1,2.54,2.61.7.38,1.46.35,2.26-.09.82-.46,1.25-1.12,1.27-1.98.01-.74-.51-1.8-1.57-3.19-1-1.3-1.88-2.18-2.65-2.64Z"/><path class="cls-2" d="m50.12,45.5c.58.85.81,1.6.68,2.25-.14.65-.86,1.24-2.17,1.78-1.32.53-2.38,1.12-3.19,1.79-.81.66-1.46,1.07-1.94,1.23-.48.17-.95,0-1.41-.49-.47-.49-.81-1.14-1.01-1.94-.21-.79-.96-2.49-2.26-5.11-2-3.33-2.91-4.8-3.35-5.24-.44-.44-.63-.86-.58-1.27.06-.41.51-.88,1.36-1.41.85-.53,1.44-.59,1.79-.17.75.87,2.26,4.04,3.4,6.09,1.14,2.05,1.97,3.42,2.47,4.12.35.86,1.19.7,2.55-.48,1.02-.74,1.82-1.21,2.4-1.42.58-.21,1-.12,1.28.28Z"/><path class="cls-2" d="m44.19,34.49c-.03-.68.21-1.39.72-2.12.44-.63,1.02-1.19,1.75-1.7.79-.54,1.54-.93,2.25-1.17.91-.29,1.6-.27,2.07.07.24.17.41.33.53.5.09.13.15.26.17.4.25.5.02,1.07-.68,1.72-.35.32-.72.6-1.12.82-.55.34-.98.64-1.3.9-.58.46-.89.84-.95,1.16-.06.04-.08.19-.05.46.04.38.26.77.64,1.16.24.24.58.32,1.03.24.01,0,.03,0,.06,0,.12-.03.25-.06.39-.11.55-.15,1.04-.32,1.47-.49,0,0,.04-.02.08-.03.83-.34,1.33-.3,1.5.12.1.16.17.36.2.6.06.46-.1.87-.47,1.21-.34.23-.68.48-.99.75-.28.17-.54.4-.78.68-.46.55-.58,1.08-.35,1.6,0,0,0,.01,0,.02h0c.07.22.22.46.44.75.28.52.61.84.98.97,0,0,.01,0,.02,0h.02c.06.02.13.03.2.03h.03s.02,0,.03,0c0,0,.01.01.02.01.03,0,.03-.01.02-.01.16-.02,1.18-.48,3.05-1.39.63-.22,1.1-.22,1.4-.02.17.16.29.26.35.31.57.43.7,1,.39,1.7-.37.84-1.34,1.71-2.9,2.62-.64.38-1.36.59-2.16.63-.99.04-1.85-.22-2.59-.79-.81-.63-1.63-1.53-2.45-2.69-1-1.43-1.79-3.29-2.35-5.59-.17-.6-.36-1.47-.57-2.6-.08-.23-.12-.46-.13-.68Z"/><path class="cls-2" d="m63.4,41.21c-.85.39-1.7.68-2.73.58-.99-.1-1.99-.46-2.99-1.1-2.25-1.42-3.83-3.6-4.75-6.53-.86-2.71-.5-4.63.82-6.54.66-.96,1.39-1.65,2.23-2.05,1.01-.48,2.54-.88,3.31-.58.42.15.73.44.93.87.18.38.35,1.5-.57,1.73-.62.16-2.02.34-2.49.7-.87.56-1.38,1.5-1.54,2.82-.08.65-.07,1.25.03,1.79h.01c.13,1.32,2.02,4.96,4.28,5.65,1.15.35,3.27-.34,3.54-1.52.15-.65-.39-1.65-.98-2.01-.59-.36-1.56.87-2.21.8-.65-.07-1.09-1.08-1.1-1.65,0-.45.08-.83.37-.99,2.96-1.62,3.9-1.07,4.62-.54,1.4,1.02,2.1,3.69,2,4.87-.1,1.18-.45,2.63-2.76,3.71Z"/><path class="cls-2" d="m62.48,25.18c-.48-.43-.79-.94-.93-1.53-.15-.63-.05-1.17.3-1.62.04-.04.08-.09.12-.14.45-.45,1.03-.64,1.73-.55.66.08,1.23.35,1.7.82.3.3.5.63.61,1,.17.61.02,1.2-.44,1.78-.04.06-.08.1-.11.12-.47.54-1,.8-1.59.77-.5-.03-.97-.25-1.41-.65Zm1.24,2.74c-.04-.65.17-1.06.65-1.23.6-.13,1.01-.27,1.26-.4.2-.08.44-.07.7.04.25.11.5.38.76.82.04.07.1.18.17.31.06.09.12.21.19.36.08.18.16.33.23.45.38.66.66,1.24.84,1.73.06.19.16.46.31.83,1.03,2.77,1.55,4.22,1.57,4.33.2.99.15,1.71-.14,2.16-.21.32-1.4,1.44-2.34.77-1.51-1.08-2.39-2.79-2.77-4.27-.42-1.69-.74-2.91-.94-3.67-.02-.04-.04-.12-.05-.23-.02-.1-.04-.17-.06-.23-.14-.54-.23-.92-.28-1.14-.05-.24-.07-.36-.07-.36,0,0,0-.09-.02-.26Z"/><path class="cls-2" d="m69.99,33.61c-.58-1.11-.95-2.88-1.09-5.31-.13-2.33-.02-3.99.33-4.96.42-1.13.88-1.96,1.4-2.51.69-.73,1.66-1.22,2.92-1.48.97-.2,1.93-.11,2.9.29.86.34,1.55.85,2.1,1.51.52.63.96,1.71,1.34,3.23.34,1.35.52,2.6.55,3.78.05,1.61.05,2.76,0,3.46-.11,1.35-.4,2.35-.89,2.99-.83,1.13-2.12,1.85-3.88,2.14-1.2.19-2.35-.06-3.46-.76-.95-.6-1.69-1.4-2.21-2.4Zm5.95-9.29c-.44-.79-.93-1.25-1.46-1.38-.79-.2-1.54.39-2.26,1.77-.41.78-.57,1.9-.47,3.34.11,1.47.43,2.64.96,3.51.43.67,1.1,1.01,2.02,1.02.94,0,1.63-.37,2.07-1.12.37-.64.43-1.82.17-3.55-.24-1.62-.59-2.81-1.03-3.59Z"/><path class="cls-2" d="m87.12,34.91c.62-.87,1.43-2.28,2.43-4.22,1.25-2.41,2.26-4.01,3.02-4.77.26-.27.54-.5.83-.69.09-.05.18-.08.28-.08.71.1,1.89.6,3.54,1.51,1.83,1.01,3.02,1.92,3.55,2.71.34.5.35.96.04,1.37-.86,1.04-1.52,1.52-1.97,1.44.09.02-.49-.36-1.74-1.12-.1-.06-.27-.17-.51-.35-.27-.18-.48-.32-.62-.41-.53-.34-.94-.51-1.24-.51-.66.5-1.31,1.26-1.95,2.28-.04.05-.07.1-.11.17,0,.01-.02.03-.03.05-.11.23-.17.45-.19.66,0,.24.1.45.29.63.04.04.14.11.28.22.12.09.22.17.3.24.06.06.3.23.72.51.35.23.54.39.55.49.03.28-.08.58-.35.89-.09.1-.19.21-.31.31-.17.16-.24.23-.22.21-.21.21-.58.2-1.11,0-.18-.07-.4-.17-.66-.31-.37-.2-.56-.31-.58-.31-.25-.12-.42-.19-.51-.21-.2-.02-.46.13-.78.45-.5.51-.93,1.31-1.31,2.41,0,0,0,.01-.01.02-.02.07-.04.12-.04.14-.24.76-.54,1.17-.89,1.23-.94.29-1.72.16-2.35-.39-.25-.21-.38-.47-.42-.79.02-.61.26-1.22.72-1.83.44-.59.89-1.25,1.35-1.99,0,.01-.01.02-.01.02Z"/><path class="cls-2" d="m105.06,30.8l.18.11c1.11.66,1.14,2.98.08,6.98-.36,1.31-1.08,3.25-2.16,5.81-.52,1.96-.93,3.2-1.25,3.73-.4.67-1.23.82-2.49.44-.78-.46-.78-1.36.02-2.71.46-.78.28-1.42-.55-1.91l-1.06-.63c-.83-.49-1.46-.36-1.9.39-.28.55-.49.96-.65,1.21-.35.37-.91.33-1.67-.12l-.13-.07c-.7-.41-.55-1.6.44-3.56l.77-1.3c1.73-2.93,4.19-5.51,7.37-7.75,1.39-.77,2.39-.98,3-.62Zm-5.32,6.82l-.28.47c-.56.95-.39,1.69.52,2.23.61.36,1.29.23,2.05-.38.27-.37.47-.65.59-.85l.35-.59c1-1.96,1.16-3.13.49-3.53l-.06-.04c-.8-.48-2.02.42-3.66,2.69Z"/><path class="cls-2" d="m113.4,48.24c-.21.83-.51,1.56-.93,2.19h.01c-.17.29-.43.6-.8.93-.75.66-1.64,1.07-2.68,1.25-1.08.18-2.11.01-3.09-.49-.35-.15-.67-.36-.96-.64-.03-.03-.05-.05-.07-.07h.01c-.66-.64-1.15-1.54-1.47-2.68-.09-.33-.16-.66-.21-.99-.1-.81-.07-1.46.11-1.96.33-1.02.86-1.5,1.6-1.45.33.02.62.1.87.24.49.39.79.96.91,1.73,0,.05,0,.1.02.16v.02c.05.29.13.56.24.83.45.99,1.14,1.42,2.07,1.28.32-.09.63-.26.92-.52.59-.53.81-1.25.67-2.16-.09-.5-.36-1.2-.83-2.11-.67-1.26-1.15-2.29-1.46-3.06-.41-1-.38-1.95.08-2.84.6-1.02,1.55-1.59,2.86-1.74,1.12-.09,2.15.17,3.1.78.08.06.18.12.29.21.06.04.12.09.18.13.84.68,1.19,1.26,1.05,1.73-.12.42-.46.75-1,.97-.38.07-.71-.13-.98-.59-.27-.55-.66-.82-1.18-.82,0,0-.04-.01-.12-.01-.1,0-.21,0-.31.03-.34.06-.65.24-.93.53-.13.14-.2.36-.2.67-.02.62.3,1.36.96,2.23.02.03.04.07.06.11,1.41,2.04,1.82,4.04,1.24,6,0,.01-.02.03-.02.06,0,.03,0,.04,0,.04,0,0,0,0-.01.02Z"/><path class="cls-2" d="m122.45,41.62l.47.3c.34.2.8.45,1.38.75.69.34,1.12.57,1.31.68.92.51,1.45,1.02,1.57,1.53.08.35.01.69-.2,1.03l-.02.03c-.3.6-.72.93-1.26.99-.41-.03-.85-.17-1.32-.44-.71-.4-1.21-.66-1.51-.78-.54-.2-1.02-.15-1.44.15-.08-.08-.5.46-1.24,1.61h0c-.4.59-.77,1.16-1.1,1.73-.43.68-.97,1.76-1.64,3.24-.58,1.28-1.02,2.16-1.31,2.63-.63,1.01-1.21,1.58-1.75,1.69-.45.1-.98-.05-1.57-.45-.48-.33-.64-.81-.49-1.44.14-.57.57-1.45,1.3-2.62l.16-.26c.5-.66,1.38-1.87,2.63-3.62.61-.81,1.11-1.53,1.51-2.19.71-1.05,1.04-1.75.99-2.11.03-.23,0-.46-.09-.7-.05-.17-.14-.34-.27-.51-.09-.13-.17-.21-.24-.26-.23-.21-.5-.39-.82-.53-.3-.13-.57-.36-.8-.7-.31-.6-.25-1.16.19-1.68.28-.47.63-.71,1.04-.73.36-.02.79.12,1.3.42.31.19.82.54,1.52,1.06.72.55,1.08.82,1.08.82,0,0,.2.12.6.36Z"/><path class="cls-2" d="m131.63,49.15l.14.16c.85.97.35,2.92-1.43,5.62-1,1.52-2.31,3.65-4.02,5.95-1.21,1.62-2.34,2.72-2.83,3.1-.8.62-1.42.39-2.5-.36-.6-.68-.31-1.54.85-2.57.68-.6.71-1.26.07-1.99l-.81-.92c-.63-.72-1.27-.79-1.93-.22-.44.44-.77.76-.99.95-.45.24-.96.03-1.55-.63l-.1-.11c-.54-.61-.03-1.69,1.52-3.25l1.13-1c2.55-2.24,5.69-3.94,9.41-5.08,1.56-.3,2.57-.19,3.04.34Zm-7.17,4.83l-.41.36c-.83.73-.89,1.49-.2,2.28.47.53,1.16.62,2.07.27.37-.26.65-.47.83-.63l.51-.45c1.55-1.55,2.07-2.62,1.56-3.2l-.05-.05c-.62-.7-2.05-.23-4.31,1.42Z"/></g></svg>